<svg width="25" height="24" viewBox="0 0 25 24" fill="none" xmlns="http://www.w3.org/2000/svg">
<g id="American Express">
<path id="path40" d="M0.52832 1.90735e-06V24H24.3866V16.0795C24.4814 15.9422 24.5282 15.7664 24.5282 15.5517C24.5282 15.3059 24.4814 15.1536 24.3866 15.0255V1.90735e-06H0.52832Z" fill="url(#paint0_radial_1_9853)"/>
<path id="path52" d="M0.528405 12.1511H1.67417L1.93251 11.5265H2.51089L2.76856 12.1511H5.02293V11.6736L5.22416 12.1531H6.39446L6.59569 11.6665V12.1511H12.1982L12.1956 11.1259H12.304C12.3799 11.1285 12.4021 11.1355 12.4021 11.2612V12.1511H15.2998V11.9125C15.5335 12.038 15.897 12.1511 16.3753 12.1511H17.5944L17.8553 11.5265H18.4337L18.6888 12.1511H21.0379V11.5578L21.3937 12.1511H23.2761V8.22924H21.4131V8.69242L21.1523 8.22924H19.2406V8.69242L19.001 8.22924H16.4188C15.9866 8.22924 15.6067 8.28971 15.2998 8.45816V8.22924H13.5178V8.45816C13.3225 8.28454 13.0564 8.22924 12.7605 8.22924H6.25035L5.81354 9.2422L5.36497 8.22924H3.31445V8.69242L3.08919 8.22924H1.34042L0.52832 10.0939V12.1511H0.528405ZM22.6784 11.5988H21.7281L20.457 9.48825V11.5988H19.0913L18.8304 10.9716H17.4373L17.1842 11.5988H16.3995C16.0735 11.5988 15.6608 11.5265 15.4271 11.2878C15.1914 11.0489 15.0688 10.7256 15.0688 10.2143C15.0688 9.79723 15.1421 9.4159 15.4304 9.11472C15.6471 8.8903 15.9866 8.78674 16.4487 8.78674H17.098V9.38927H16.4623C16.2176 9.38927 16.0794 9.42582 15.9463 9.55593C15.832 9.67433 15.7536 9.89816 15.7536 10.1929C15.7536 10.4941 15.8133 10.7114 15.938 10.8533C16.0412 10.9646 16.2288 10.9983 16.4053 10.9983H16.7065L17.6517 8.78682H18.6565L19.7918 11.4466V8.78682H20.8128L21.9915 10.7453V8.78682H22.6784V11.5988ZM14.7403 11.5988H14.0561V8.78682H14.7403V11.5988ZM13.6672 9.54414C13.6672 9.99248 13.3686 10.2241 13.1946 10.2937C13.3414 10.3496 13.4667 10.4485 13.5264 10.5305C13.621 10.6703 13.6374 10.7953 13.6374 11.0464V11.5988H12.961L12.9585 11.2442C12.9585 11.075 12.9746 10.8316 12.8526 10.6964C12.7546 10.5975 12.6053 10.576 12.3638 10.576H11.644V11.5988H10.9734V8.78674H12.5158C12.8585 8.78674 13.111 8.7959 13.3278 8.92142C13.54 9.04712 13.6672 9.23041 13.6672 9.54414ZM10.5086 11.5988H8.26846V8.78674H10.5086V9.37239H8.93916V9.87916H10.471V10.4557H8.93916V11.0171H10.5086V11.5988ZM7.76878 11.5988H7.08124L7.0787 9.39639L6.10633 11.5988H5.51754L4.54263 9.39453V11.5988H3.17872L2.92105 10.9716H1.52481L1.26452 11.5988H0.53619L1.73704 8.78674H2.73336L3.87387 11.4492V8.78674H4.96835L5.84595 10.6944L6.65213 8.78674H7.76869V11.5988H7.76878ZM18.6018 10.3854L18.1377 9.26442L17.6763 10.3854H18.6018ZM12.7902 9.93896C12.6981 9.99511 12.5891 9.99697 12.4585 9.99697H11.6439V9.37239H12.4696C12.5865 9.37239 12.7085 9.37765 12.7876 9.42302C12.8746 9.46407 12.9284 9.55127 12.9284 9.6717C12.9284 9.7946 12.8772 9.8935 12.7902 9.93896ZM2.67895 10.3854L2.21997 9.26442L1.76361 10.3854" fill="white"/>
<path id="path56" d="M13.5264 14.5532C13.5264 15.3347 12.9448 15.4959 12.3585 15.4959H11.5219V16.4393H10.2184L9.39266 15.5083L8.5346 16.4393H5.87829V13.6266H8.57539L9.40044 14.5486L10.2534 13.6266H12.3963C12.9284 13.6266 13.5264 13.7743 13.5264 14.5532ZM8.19511 15.8531H6.54636V15.2936H8.01851V14.7197H6.54636V14.2084H8.2276L8.96109 15.028L8.19511 15.8531ZM10.854 16.1835L9.82439 15.0378L10.854 13.9286V16.1835ZM12.3885 14.9247H11.5219V14.2085H12.3963C12.6384 14.2085 12.8063 14.3074 12.8063 14.5532C12.8063 14.7966 12.6461 14.9247 12.3885 14.9247ZM16.9129 13.6266H19.151V14.2084H17.5806V14.7197H19.1127V15.2936H17.5806V15.8531L19.151 15.8557V16.4393H16.9129V13.6266ZM16.0657 15.1322C16.2149 15.1875 16.337 15.2865 16.3942 15.3683C16.4889 15.5056 16.5026 15.6338 16.5053 15.8818V16.4393H15.8321V16.0874C15.8321 15.9183 15.8483 15.6676 15.7237 15.5369C15.6257 15.4361 15.4764 15.412 15.2316 15.412H14.5151V16.4393H13.8412V13.6266H15.3894C15.7289 13.6266 15.9761 13.6416 16.1963 13.7595C16.4079 13.8875 16.541 14.0631 16.541 14.384C16.541 14.8329 16.2423 15.062 16.0657 15.1322ZM15.6607 14.7822C15.571 14.8355 15.4601 14.8402 15.3296 14.8402H14.515V14.2085H15.3406C15.4601 14.2085 15.5796 14.211 15.6607 14.2592C15.7476 14.3047 15.7995 14.3919 15.7995 14.5122C15.7995 14.6326 15.7476 14.7295 15.6607 14.7822ZM21.7117 14.956C21.8423 15.0913 21.9123 15.2623 21.9123 15.5518C21.9123 16.1569 21.5352 16.4393 20.8588 16.4393H19.5528V15.8363H20.8536C20.9808 15.8363 21.0709 15.8194 21.1275 15.7665C21.1736 15.7231 21.2068 15.6598 21.2068 15.5832C21.2068 15.5011 21.171 15.4361 21.1249 15.3971C21.0736 15.3542 21.0029 15.3347 20.8861 15.3347C20.259 15.3133 19.4736 15.3542 19.4736 14.4641C19.4736 14.0561 19.7294 13.6267 20.4323 13.6267H21.7768V14.2254H20.5466C20.4247 14.2254 20.3454 14.2299 20.2779 14.2762C20.2045 14.3218 20.1773 14.3893 20.1773 14.4785C20.1773 14.5847 20.2396 14.6568 20.324 14.6881C20.3947 14.7128 20.4706 14.7199 20.585 14.7199L20.946 14.7297C21.3099 14.7387 21.5599 14.8018 21.7117 14.956ZM24.3867 16.0796C24.2238 16.3183 23.9064 16.4393 23.4767 16.4393H22.1816V15.8363H23.4714C23.5993 15.8363 23.6889 15.8194 23.7428 15.7665C23.7895 15.7231 23.8221 15.6598 23.8221 15.5832C23.8221 15.5011 23.7895 15.4362 23.7401 15.3971C23.6916 15.3542 23.6207 15.3347 23.5039 15.3347C22.8743 15.3133 22.0888 15.3542 22.0888 14.4641C22.0888 14.0561 22.3471 13.6267 23.0509 13.6267H24.3866V13.0672H23.1456C22.7711 13.0672 22.4989 13.1571 22.3063 13.2969V13.0672H20.4706C20.1771 13.0672 19.8324 13.14 19.6695 13.2969V13.0672H16.3914V13.2969C16.1306 13.1082 15.6904 13.0672 15.4873 13.0672H13.325V13.2969C13.1187 13.0964 12.6597 13.0672 12.3798 13.0672H9.95995L9.40628 13.6679L8.88764 13.0672H5.27283V16.9917H8.81961L9.39012 16.3816L9.92771 16.9917L12.114 16.9937V16.0705H12.3289C12.6189 16.0749 12.961 16.0632 13.2629 15.9325V16.9917H15.0661V15.9687H15.1532C15.2641 15.9687 15.2751 15.9734 15.2751 16.0846V16.9915H20.753C21.1009 16.9915 21.4644 16.9023 21.6657 16.7404V16.9915H23.4033C23.7648 16.9915 24.118 16.9407 24.3867 16.8106V16.0796ZM24.3867 14.2253H23.1645C23.0425 14.2253 22.9615 14.2298 22.8931 14.276C22.8223 14.3216 22.7951 14.3891 22.7951 14.4784C22.7951 14.5845 22.8548 14.6566 22.9418 14.6879C23.0126 14.7126 23.0886 14.7197 23.2002 14.7197L23.5636 14.7295C23.9304 14.7387 24.1752 14.8018 24.3244 14.956C24.3517 14.9773 24.3679 15.0015 24.3867 15.0255" fill="white"/>
</g>
<defs>
<radialGradient id="paint0_radial_1_9853" cx="0" cy="0" r="1" gradientUnits="userSpaceOnUse" gradientTransform="translate(4.73784 4.19275) scale(22.3886 22.4403)">
<stop stop-color="#9DD5F6"/>
<stop offset="0.071106" stop-color="#98D3F5"/>
<stop offset="0.157501" stop-color="#89CEF3"/>
<stop offset="0.251602" stop-color="#70C6EF"/>
<stop offset="0.351395" stop-color="#4EBBEA"/>
<stop offset="0.454605" stop-color="#23ADE3"/>
<stop offset="0.5" stop-color="#0DA6E0"/>
<stop offset="1" stop-color="#2E77BC"/>
</radialGradient>
</defs>
</svg>
