<svg width="28" height="16" viewBox="0 0 28 16" fill="none" xmlns="http://www.w3.org/2000/svg">
<g id="Banescard">
<path id="path22" fill-rule="evenodd" clip-rule="evenodd" d="M22.3798 1.43051e-05H0.600952V4.25627C0.611467 10.7495 6.1976 16.0079 13.0519 16H27.601V4.89412C27.601 3.58116 27.1996 2.35674 26.2139 1.42338C25.2265 0.493185 23.7706 -0.0030632 22.3798 1.43051e-05Z" fill="#B5DC19"/>
<path id="path26" fill-rule="evenodd" clip-rule="evenodd" d="M5.73163 10.5347L5.7137 10.4846L4.94118 8.311L4.92334 8.26101L4.97385 8.24332L7.23064 7.45592C7.31071 7.4278 7.39259 7.41379 7.47689 7.41379C7.78958 7.41379 8.06918 7.60966 8.17192 7.90328L8.71742 9.43604L8.73526 9.48543L8.68415 9.50321L5.78205 10.5164L5.73163 10.5347Z" fill="#A3CA3F"/>
<path id="path30" fill-rule="evenodd" clip-rule="evenodd" d="M6.82925 10.0945L5.763 10.4657L4.99229 8.292L6.82925 7.65116L7.24917 7.50528C7.32484 7.47905 7.40121 7.46683 7.47688 7.46683C7.7595 7.46683 8.02238 7.64073 8.1215 7.91975L8.66751 9.45301L6.82925 10.0945ZM6.82925 7.53887L4.95592 8.19381L4.85559 8.22859L4.89067 8.32866L5.66328 10.5017L5.69835 10.6018L5.79808 10.5663L6.82925 10.2074L8.70198 9.55308L8.80291 9.5183L8.76723 9.41763L8.22303 7.88428C8.11158 7.57057 7.81242 7.36001 7.47688 7.36001C7.38707 7.36001 7.29899 7.37641 7.2134 7.40573L6.82925 7.53887Z" fill="white"/>
<path id="path34" fill-rule="evenodd" clip-rule="evenodd" d="M7.81057 12.6443H7.80997C7.01831 12.6443 6.31026 12.1468 6.04678 11.4064L5.84975 10.8497L5.83191 10.7996L5.88242 10.7819L8.95258 9.70953C9.03317 9.6827 9.11816 9.6674 9.20374 9.6674C9.52506 9.6674 9.81198 9.87002 9.92032 10.1691L10.4848 11.7653L10.5033 11.8154L10.4528 11.833L8.43234 12.5393C8.231 12.6088 8.02234 12.6443 7.81057 12.6443Z" fill="#194084"/>
<path id="path38" fill-rule="evenodd" clip-rule="evenodd" d="M8.16755 12.5561C8.04809 12.5806 7.92872 12.5915 7.80986 12.5915C7.0613 12.5915 6.36006 12.1282 6.09718 11.3884L5.89964 10.8312L8.16755 10.0402L8.96972 9.7599C9.04729 9.73255 9.12607 9.72084 9.20364 9.72084C9.49479 9.72084 9.76628 9.89979 9.86851 10.1872L10.4355 11.7834L8.4144 12.489C8.33191 12.5184 8.25003 12.5397 8.16755 12.5561ZM8.16755 9.92842L5.86447 10.7311L5.76294 10.7677L5.79802 10.8666L5.99626 11.4233C6.26715 12.1863 6.99606 12.6965 7.80986 12.6965C7.93053 12.6965 8.04999 12.6861 8.16755 12.6636C8.26236 12.6459 8.35717 12.6209 8.45008 12.5879L10.4699 11.8823L10.571 11.8475L10.5359 11.748L9.96883 10.1525C9.85558 9.82895 9.5484 9.61471 9.20364 9.61471C9.11193 9.61471 9.02143 9.63 8.93464 9.65983L8.16755 9.92842Z" fill="white"/>
<path id="path42" fill-rule="evenodd" clip-rule="evenodd" d="M12.3113 12.6826C11.274 12.6826 10.7255 12.1583 10.7255 11.1635C10.7255 10.5616 10.9114 10.0116 11.2488 9.61669C11.6126 9.1906 12.1248 8.96662 12.7311 8.96662C13.188 8.96662 13.5727 9.07284 13.8473 9.27358C14.1594 9.5044 14.3232 9.84494 14.3324 10.2893V10.3173H14.3034H13.3413H13.3135V10.2893C13.3135 9.91083 13.1233 9.7412 12.6986 9.7412C11.9432 9.7412 11.745 10.6849 11.745 11.1835C11.745 11.5137 11.8545 11.9068 12.3797 11.9068C12.861 11.9068 13.0575 11.5162 13.1307 11.283L13.1374 11.2622H13.1584H14.12H14.1607L14.1478 11.3001C13.8436 12.2041 13.2083 12.6826 12.3113 12.6826ZM15.9177 11.9649C16.3197 11.8769 16.4711 11.5461 16.5641 11.222L16.6404 10.9516C16.4292 11.0536 16.1897 11.0706 15.9571 11.0853L15.9177 11.0877L15.877 11.0913C15.4663 11.1359 15.1925 11.2446 15.1925 11.6261C15.1925 11.8934 15.4609 11.9874 15.6918 11.9874C15.7736 11.9874 15.848 11.9801 15.9177 11.9649ZM15.9177 10.4908L15.9558 10.4859C16.5677 10.426 16.8478 10.398 16.8478 10.0549C16.8478 9.68873 16.4034 9.66001 16.2667 9.66001C16.1331 9.66001 16.0156 9.68445 15.9177 9.72539C15.7366 9.80589 15.6184 9.95048 15.584 10.1477L14.6556 10.1709C14.6846 9.72411 14.8828 9.41467 15.2183 9.21624C15.4123 9.10266 15.6456 9.02704 15.9177 8.99046C16.042 8.97337 16.1737 8.96662 16.3141 8.96662C16.9174 8.96662 17.3434 9.08805 17.5823 9.32793C17.7239 9.47013 17.7971 9.65694 17.7996 9.87853C17.7996 10.0353 17.7731 10.2332 17.7239 10.4969L17.4124 11.8952C17.3809 12.01 17.3662 12.2157 17.3662 12.3579C17.3662 12.4166 17.3785 12.4934 17.3982 12.5508L17.4112 12.5881H17.3705H16.4096L16.3806 12.2895C16.2537 12.4135 16.0949 12.5111 15.9177 12.5795C15.7392 12.6466 15.5415 12.6826 15.3389 12.6826C14.5343 12.6826 14.173 12.2102 14.173 11.7414C14.173 11.0767 14.671 10.6348 15.539 10.531L15.9177 10.4908ZM18.8363 12.5881H18.8135H17.8513H17.8162L17.8242 12.5551L18.5555 9.08198L18.5599 9.06002H18.5827H19.4981H19.5338L19.5264 9.0948L19.4156 9.57635C19.6507 9.19607 20.0817 8.96662 20.5749 8.96662C20.6764 8.96662 20.7718 8.97209 20.8758 8.9861L20.9072 8.98918L20.9011 9.02037L20.7047 9.94629L20.6986 9.97492L20.6697 9.96945C20.6475 9.96398 20.6229 9.95911 20.5994 9.95356C20.4911 9.93168 20.379 9.90844 20.2689 9.90844C19.5092 9.90844 19.2801 10.5078 19.1669 11.0279L18.8412 12.5655L18.8363 12.5881ZM22.2647 11.8855C22.8373 11.7499 23.1069 10.9919 23.1069 10.4639C23.1069 10.0049 22.8643 9.7412 22.4439 9.7412C22.3817 9.7412 22.3214 9.74786 22.2647 9.76008C21.6854 9.88767 21.4231 10.6257 21.4231 11.1635C21.4231 11.5058 21.5949 11.9068 22.0788 11.9068C22.144 11.9068 22.2057 11.8995 22.2647 11.8855ZM22.2647 8.96781L22.3435 8.96662C22.687 8.96662 23.1376 9.10155 23.3241 9.47876L23.696 7.75928L24.6865 7.73672L23.691 12.5655L22.7362 12.5881L22.78 12.2254C22.6544 12.3969 22.4771 12.5251 22.2647 12.5996C22.1145 12.6539 21.9471 12.6826 21.766 12.6826C20.9263 12.6826 20.4031 12.1467 20.4031 11.2836C20.4031 10.6763 20.5736 10.1111 20.8795 9.6942C21.2139 9.2382 21.6928 8.98679 22.2647 8.96781ZM22.8139 7.02436C22.413 7.02436 22.0431 6.93711 21.7734 6.77901C21.4367 6.58058 21.2594 6.27302 21.2594 5.88719V5.74319V5.71388H21.2883H22.2038H22.2321V5.74319V5.85975C22.2321 6.15706 22.5737 6.31208 22.9117 6.31208C23.0514 6.31208 23.5064 6.28396 23.5064 5.9147C23.5064 5.69551 23.3981 5.62355 23.1728 5.55151L22.4161 5.30984C21.9113 5.14807 21.6189 4.94297 21.6189 4.37349C21.6189 3.57567 22.4322 3.21735 23.2374 3.21735C23.8155 3.21735 24.215 3.33707 24.46 3.58361C24.6496 3.77401 24.742 4.042 24.737 4.38204V4.41126H24.7075H23.7927H23.7631L23.7625 4.38204C23.7551 4.08174 23.579 3.92971 23.2374 3.92971C22.9757 3.92971 22.6631 3.98526 22.6631 4.25018C22.6631 4.37101 22.7344 4.47048 23.0933 4.58038L23.587 4.73848C24.0869 4.90204 24.5492 5.1426 24.5492 5.78464C24.5492 6.19611 24.3566 6.52811 23.9916 6.74423C23.6892 6.92429 23.2712 7.02436 22.8139 7.02436ZM16.8368 6.92856H16.8146H15.829H15.7927L15.8001 6.8919L16.2365 4.80804C16.2661 4.7025 16.2987 4.47296 16.2987 4.38204C16.2987 4.1842 16.0666 4.04628 15.8567 4.04628C15.1579 4.04628 14.9406 4.72258 14.8791 5.01313L14.4784 6.90472L14.4734 6.92856H14.4494H13.4644H13.4275L13.4354 6.8919L14.1841 3.33639L14.189 3.31383H14.2129H15.1561H15.1925L15.1845 3.34989L15.0946 3.75213C15.4123 3.39681 15.8217 3.21735 16.3141 3.21735C17.0092 3.21735 17.3914 3.56712 17.3914 4.20198C17.3914 4.30384 17.3557 4.51142 17.2862 4.82086L16.8429 6.90472L16.8368 6.92856ZM7.28723 4.74087H6.48937L6.21046 6.03126H7.28723H7.54028C8.05613 6.03126 8.36391 5.74627 8.36391 5.2695C8.36391 4.7818 7.93546 4.74087 7.53347 4.74087H7.28723ZM7.28723 2.85484H6.88524L6.65373 3.94681H7.28723H7.85237C8.20454 3.94681 8.55844 3.75572 8.55844 3.32972C8.55844 3.00618 8.38485 2.85484 8.01243 2.85484H7.28723ZM7.28723 6.92856H4.94666L5.95749 1.98079L7.28723 1.95874H8.06724C8.6336 1.95874 9.00171 2.03018 9.25968 2.18648C9.55945 2.37141 9.70657 2.68085 9.70657 3.13625C9.70657 3.42372 9.61608 3.69719 9.45361 3.90895C9.29967 4.10857 9.0898 4.24163 8.84537 4.2929C9.25908 4.43938 9.51265 4.81351 9.51265 5.28899C9.51265 5.79626 9.3095 6.22235 8.92604 6.51657C8.58188 6.7814 8.10663 6.92856 7.58889 6.92856H7.28723ZM19.5289 4.70976H20.3156C20.3108 4.37836 20.2264 4.01269 19.6785 4.01269C19.6268 4.01269 19.5782 4.01457 19.5289 4.02124C19.1669 4.07012 18.9029 4.30145 18.7421 4.70976H19.5289ZM19.5289 3.21982L19.6231 3.21735C20.1334 3.21735 20.5594 3.35536 20.8531 3.61532C21.1653 3.89126 21.3246 4.29102 21.3246 4.80077C21.3246 4.9875 21.3044 5.18285 21.2687 5.36351L19.5289 5.38675H18.6239L18.619 5.56553C18.619 5.98854 18.896 6.23029 19.3805 6.23029C19.4328 6.23029 19.4839 6.22534 19.5289 6.21679C19.8078 6.16065 19.9654 5.95316 20.0916 5.75413L21.1011 5.74259H21.1442L21.1283 5.78096C20.8223 6.56357 20.3359 6.94257 19.5289 7.01274C19.4371 7.02008 19.3417 7.02436 19.242 7.02436C18.2238 7.02436 17.6167 6.43291 17.6167 5.44042C17.6167 4.85991 17.807 4.31179 18.1535 3.89861C18.5033 3.48354 18.989 3.24486 19.5289 3.21982ZM11.4827 4.77873L11.5215 4.77514C12.1495 4.71284 12.4357 4.68532 12.4357 4.33315C12.4357 3.95902 11.9808 3.92971 11.8404 3.92971C11.7049 3.92971 11.5842 3.95227 11.4821 3.99748C11.2974 4.07807 11.1767 4.22693 11.1416 4.42716L10.1899 4.4516C10.22 3.99381 10.4238 3.67821 10.7673 3.4744C10.9643 3.35715 11.2038 3.28024 11.4821 3.24307C11.6095 3.22717 11.7462 3.21735 11.889 3.21735C12.5077 3.21735 12.9442 3.34314 13.188 3.58848C13.3327 3.73436 13.4071 3.92296 13.4102 4.14882C13.4108 4.31427 13.385 4.51142 13.3333 4.78488L13.015 6.21679C12.9811 6.33523 12.9664 6.5452 12.9664 6.69296C12.9664 6.75218 12.9799 6.83088 12.999 6.88882L13.0132 6.92856H12.9713H11.9869L11.9567 6.62032C11.8274 6.7485 11.6655 6.84857 11.4821 6.91873C11.2999 6.98718 11.0973 7.02436 10.8905 7.02436C10.0655 7.02436 9.69554 6.53913 9.69554 6.06058C9.69554 5.38 10.2059 4.92896 11.0948 4.82086L11.4827 4.77873ZM11.5154 6.28516C11.9272 6.19543 12.0503 5.86163 12.1457 5.52895L12.2251 5.24993C12.0066 5.35556 11.7622 5.37325 11.5233 5.38855L11.4414 5.39461C11.021 5.44042 10.739 5.55151 10.739 5.94273C10.739 6.21619 11.0149 6.31208 11.2512 6.31208C11.3368 6.31208 11.4464 6.30165 11.5154 6.28516Z" fill="#194084"/>
</g>
</svg>
