<svg width="25" height="18" viewBox="0 0 25 18" fill="none" xmlns="http://www.w3.org/2000/svg">
<path d="M10.6947 -8.67844e-05H13.5234C13.5234 -8.67844e-05 15.0059 -8.7738e-05 16.2765 0.952891C16.2765 0.952891 18.2581 2.13278 18.2884 4.80268C18.2884 4.80268 18.4245 7.0793 16.3068 8.60711C16.3068 8.60711 15.263 9.49961 13.478 9.63574H10.6947C10.6947 9.63574 8.77357 9.62061 7.32141 8.03228C7.32141 8.03228 6.05077 6.68599 6.09613 4.81781C6.09613 4.81781 6.03561 2.84375 7.45754 1.40672C7.45754 1.40672 8.63744 0.0906916 10.6947 -8.67844e-05Z" fill="#0079C1"/>
<path d="M15.4225 4.80271C15.4225 2.35075 13.4347 0.362993 10.9828 0.362993C8.53078 0.362993 6.54303 2.35075 6.54303 4.80271C6.54303 7.25471 8.53078 9.24243 10.9828 9.24243C13.4347 9.24243 15.4225 7.25471 15.4225 4.80271Z" fill="white"/>
<path d="M9.98374 2.19332V7.41211C9.98374 7.41211 8.18366 6.79192 8.18366 4.71953C8.18366 4.71953 8.1534 2.94968 9.98374 2.19332Z" fill="#0079C1"/>
<path d="M11.9894 2.19332V7.41211C11.9894 7.41211 13.7895 6.79192 13.7895 4.71953C13.7895 4.71953 13.8198 2.94968 11.9894 2.19332Z" fill="#0079C1"/>
<path d="M0.990814 10.8686V13.6444C0.990814 13.6444 0.945424 14.0226 1.36899 14.0604C1.36899 14.0604 2.99513 14.2494 2.96487 12.351C2.96487 12.351 3.00268 11.4207 2.07993 10.982C2.07993 10.982 1.66394 10.7551 0.990814 10.8686ZM0.340365 14.0226C0.529437 13.9167 0.4765 13.6368 0.4765 13.6368V11.1938C0.468951 10.9215 0.378172 10.8988 0.378172 10.8988C0.355494 10.8156 0.0227051 10.7929 0.0227051 10.7929V10.6719H1.59587C3.53967 10.7929 3.52458 12.4418 3.52458 12.4418C3.41112 14.2948 1.57319 14.2116 1.57319 14.2116H0.0227051V14.083C0.294975 14.083 0.340365 14.0226 0.340365 14.0226Z" fill="black"/>
<path d="M4.49098 10.8657C4.49098 10.7319 4.38263 10.6236 4.24897 10.6236C4.11527 10.6236 4.00693 10.7319 4.00693 10.8657C4.00693 10.9993 4.11527 11.1077 4.24897 11.1077C4.38263 11.1077 4.49098 10.9993 4.49098 10.8657Z" fill="black"/>
<path d="M3.77669 12.1115L4.34144 11.9149C4.34144 11.9149 4.4574 11.8342 4.45236 12.0132V13.9116C4.45236 13.9116 4.44227 14.0881 4.59858 14.0881H4.79019V14.2122H3.70609V14.0931H3.92291C3.92291 14.0931 4.05404 14.0629 4.04392 13.9116V12.4846C4.04392 12.4846 4.04392 12.2779 3.78173 12.1922L3.77669 12.1115Z" fill="black"/>
<path d="M4.97674 12.1468V12.2376C4.97674 12.2376 5.28431 12.3233 5.26414 12.5199V13.9267C5.26414 13.9267 5.27012 14.078 5.12089 14.083H4.94144V14.2122H6.02046V14.0881H5.83393C5.83393 14.0881 5.67762 14.078 5.67762 13.9368V12.419C5.67762 12.419 6.07597 12.1417 6.33311 12.177C6.33311 12.177 6.69616 12.172 6.74155 12.5703V13.9166C6.74155 13.9166 6.74155 14.083 6.59029 14.0881H6.39864V14.2122H7.48779V14.083H7.31131C7.31131 14.083 7.14996 14.1032 7.14491 13.9166V12.6006C7.14491 12.6006 7.17517 11.9391 6.64573 11.8967C6.64573 11.8967 6.23732 11.8039 5.68266 12.2728V11.8893C5.68266 11.8893 5.04227 12.1317 4.97674 12.1468Z" fill="black"/>
<path d="M7.89624 12.6612H8.77864C8.77864 12.6612 8.94504 12.6662 8.92487 12.4847C8.92487 12.4847 8.89461 12.0662 8.46099 12.0611C8.46099 12.0611 7.96177 12.0712 7.89624 12.6612ZM8.08785 13.715C8.2845 13.9974 8.61225 13.9974 8.61225 13.9974C8.98034 14.0024 9.31313 13.6495 9.31313 13.6495L9.38374 13.7251C8.90974 14.3705 8.42381 14.2949 8.42381 14.2949C7.28744 14.2696 7.4878 12.9133 7.4878 12.9133C7.66431 11.8594 8.52655 11.8894 8.52655 11.8894C9.37869 11.9646 9.35852 12.7116 9.35852 12.7116C9.37362 12.8225 9.25261 12.8225 9.25261 12.8225H7.87607C7.83572 13.4377 8.08785 13.715 8.08785 13.715Z" fill="black"/>
<path d="M9.59043 12.1922V12.2627C9.59043 12.2627 9.85264 12.3536 9.85264 12.4644V13.9519C9.85264 13.9519 9.84256 14.0881 9.72152 14.083H9.46942V14.2122H10.7804V14.083H10.4073C10.4073 14.083 10.2409 14.0981 10.261 13.8864V12.7116C10.261 12.7116 10.2409 12.409 10.6039 12.3132C10.6039 12.3132 10.6947 12.2779 10.8258 12.3939C10.8258 12.3939 11.1233 12.5502 11.204 12.1922C11.204 12.1922 11.2241 12.0005 11.0578 11.9299C11.0578 11.9299 10.8258 11.814 10.6039 12.0106C10.6039 12.0106 10.4754 12.0901 10.256 12.4191V11.9653C10.256 11.9653 10.256 11.8367 10.135 11.9237C10.135 11.9237 9.62823 12.177 9.59043 12.1922Z" fill="black"/>
<path d="M12.6461 12.5704H12.7671L12.7369 12.0611C12.7369 12.0611 12.2427 11.7435 11.7586 11.9805C11.7586 11.9805 11.3653 12.1468 11.3603 12.5704C11.3603 12.5704 11.325 12.9335 11.7132 13.1452L12.1469 13.3519C12.1469 13.3519 12.515 13.5082 12.4746 13.8008C12.4746 13.8008 12.4587 14.1335 12.0633 14.1335C12.0633 14.1335 11.5468 14.1537 11.4309 13.5234L11.325 13.5436L11.3855 14.1336C11.3855 14.1336 11.7435 14.3204 12.0108 14.2976C12.0108 14.2976 12.8831 14.3352 12.8831 13.5688C12.8831 13.5688 12.9184 13.1906 12.4393 12.994L11.92 12.7469C11.92 12.7469 11.6729 12.6058 11.7082 12.3612C11.7082 12.3612 11.7435 12.0409 12.1519 12.0611C12.1519 12.0611 12.5957 12.0611 12.6461 12.5704Z" fill="black"/>
<path d="M17.3405 11.6023H17.4715L17.4312 10.8712C17.4312 10.8712 16.211 10.2712 15.263 10.8409C15.263 10.8409 14.2798 11.2947 14.2949 12.4141C14.2949 12.4141 14.2092 13.4679 15.1572 14.0327C15.1572 14.0327 16.0597 14.6277 17.3606 14.0327L17.4715 13.2864L17.3606 13.2562C17.3606 13.2562 17.2162 14.0885 16.3471 14.1335C16.3471 14.1335 15.6715 14.1739 15.1773 13.4932C15.1773 13.4932 14.7739 12.999 14.8243 12.273C14.8243 12.273 14.8196 11.3685 15.495 10.9821C15.495 10.9821 15.8631 10.73 16.3017 10.7653C16.3017 10.7653 17.2144 10.7149 17.3405 11.6023Z" fill="black"/>
<path d="M17.7236 10.619V10.6896C17.7236 10.6896 18.001 10.7099 17.9959 11.0023V13.9319C17.9959 13.9319 17.9959 14.068 17.8598 14.0781H17.6581V14.2192H18.7422V14.0831H18.5506C18.5506 14.0831 18.3943 14.0932 18.3943 13.9067V10.4173C18.3943 10.4173 18.4094 10.2863 18.3136 10.3619C18.3136 10.3619 17.9606 10.5334 17.7236 10.619Z" fill="black"/>
<path d="M18.7422 12.0106L19.3524 11.9753C19.3524 11.9753 19.4734 11.935 19.4532 12.0812V13.4931C19.4532 13.4931 19.3977 14.0225 19.8868 14.0275C19.8868 14.0275 20.1087 14.0427 20.5171 13.7098V12.3333C20.5171 12.3333 20.4768 12.2173 20.0834 12.1417V12.056L20.8045 11.9904C20.8045 11.9904 20.9205 11.9249 20.9205 12.066V13.9166C20.9205 13.9166 20.8852 14.0378 21.0415 14.0277H21.2583V14.1334C21.2583 14.1334 20.6179 14.2488 20.5171 14.297L20.502 14.2695V13.8864C20.502 13.8864 19.9625 14.3598 19.5742 14.297C19.5742 14.297 19.0548 14.2998 19.0447 13.7048V12.3182C19.0447 12.3182 19.0347 12.1115 18.7422 12.1115V12.0106Z" fill="black"/>
<path d="M21.9239 12.4191V13.6192C21.9239 13.6192 21.9565 14.1486 22.4432 14.1587C22.4432 14.1587 23.1627 14.2421 23.2198 13.1805C23.2198 13.1805 23.2046 12.2829 22.4181 12.1771C22.4181 12.1771 22.2063 12.1317 21.9239 12.4191ZM21.5558 14.2444L21.4449 14.1839C21.4449 14.1839 21.5003 13.9368 21.5256 13.3419V10.972C21.5256 10.972 21.5054 10.7198 21.2583 10.7047V10.5952C21.2583 10.5952 21.5003 10.5333 21.8331 10.3618C21.8331 10.3618 21.9239 10.2811 21.9289 10.4425V12.2527C21.9289 12.2527 22.5491 11.6376 23.1542 12.0258C23.1542 12.0258 23.613 12.2779 23.6282 12.9486C23.6282 12.9486 23.6282 14.2187 22.4181 14.2971C22.4181 14.2971 21.9743 14.305 21.7071 14.1133L21.5558 14.2444Z" fill="black"/>
<path d="M0 15.3184H0.862233V15.4193H0.751314C0.751314 15.4193 0.625233 15.4293 0.625233 15.5554V17.0176C0.625233 17.0176 0.605093 17.1538 0.741228 17.1588H0.862233V17.2698H0V17.1639H0.121005C0.121005 17.1639 0.231957 17.1588 0.242044 17.0227V15.5453C0.242044 15.5453 0.216827 15.4193 0.115962 15.4293H0V15.3184Z" fill="black"/>
<path d="M14.8798 15.3184H15.742V15.4193H15.6311C15.6311 15.4193 15.5051 15.4293 15.5051 15.5554V17.0176C15.5051 17.0176 15.4849 17.1538 15.621 17.1588H15.742V17.2698H14.8798V17.1639H15.0008C15.0008 17.1639 15.1117 17.1588 15.1218 17.0227V15.5453C15.1218 15.5453 15.0966 15.4193 14.9958 15.4293H14.8798V15.3184Z" fill="black"/>
<path d="M0.942902 15.3184H1.51773L2.74298 16.6748V15.6361C2.74298 15.6361 2.74298 15.4596 2.58163 15.4344H2.4455V15.3184H3.19681V15.4294H3.10099C3.10099 15.4294 2.93459 15.4092 2.91442 15.6613V17.0782C2.91442 17.0782 2.89933 17.2648 2.92955 17.3152H2.79846L1.3967 15.7571V16.9118C1.3967 16.9118 1.37151 17.1538 1.54799 17.1588H1.70427V17.2698H0.942902V17.1639H1.05382C1.05382 17.1639 1.21013 17.1588 1.23534 16.9118V15.6512C1.23534 15.6512 1.21517 15.4798 1.05382 15.4344H0.942902V15.3184Z" fill="black"/>
<path d="M8.92679 15.3184H9.50159L10.7269 16.6748V15.6361C10.7269 15.6361 10.7269 15.4596 10.5655 15.4344H10.4294V15.3184H11.1807V15.4294H11.0849C11.0849 15.4294 10.9185 15.4092 10.8983 15.6613V17.0782C10.8983 17.0782 10.8832 17.2648 10.9134 17.3152H10.7823L9.38058 15.7571V16.9118C9.38058 16.9118 9.3554 17.1538 9.53185 17.1588H9.68816V17.2698H8.92679V17.1639H9.03771C9.03771 17.1639 9.19402 17.1588 9.21923 16.9118V15.6512C9.21923 15.6512 9.19906 15.4798 9.03771 15.4344H8.92679V15.3184Z" fill="black"/>
<path d="M17.9456 15.3184H18.5204L19.7456 16.6748V15.6361C19.7456 15.6361 19.7456 15.4596 19.5843 15.4344H19.4482V15.3184H20.1994V15.4294H20.1036C20.1036 15.4294 19.9372 15.4092 19.9171 15.6613V17.0782C19.9171 17.0782 19.9019 17.2648 19.9322 17.3152H19.8011L18.3994 15.7571V16.9118C18.3994 16.9118 18.3741 17.1538 18.5506 17.1588H18.7069V17.2698H17.9456V17.1639H18.0565C18.0565 17.1639 18.2128 17.1588 18.238 16.9118V15.6512C18.238 15.6512 18.2178 15.4798 18.0565 15.4344H17.9456V15.3184Z" fill="black"/>
<path d="M3.2926 15.2377C3.2926 15.2377 3.28755 15.5251 3.23712 15.7268H3.35312C3.35312 15.7268 3.34303 15.4646 3.55986 15.4823H4.03383V16.9218C4.03383 16.9218 4.06913 17.1336 3.91786 17.1639H3.75147V17.2698H4.69436V17.1588H4.56831C4.56831 17.1588 4.39687 17.1639 4.41705 16.9168V15.4798H4.86076C4.86076 15.4798 5.03724 15.4445 5.05237 15.747L5.15824 15.7067C5.15824 15.7067 5.16329 15.4747 5.1885 15.2377C5.1885 15.2377 5.12294 15.2579 5.10784 15.2377C5.10784 15.2377 5.08263 15.3134 5.00698 15.3184H3.47917C3.47917 15.3184 3.39346 15.3134 3.37329 15.2377H3.2926Z" fill="black"/>
<path d="M12.8982 15.2377C12.8982 15.2377 12.8931 15.5251 12.8427 15.7268H12.9587C12.9587 15.7268 12.9486 15.4646 13.1654 15.4823H13.6394V16.9218C13.6394 16.9218 13.6747 17.1336 13.5234 17.1639H13.357V17.2698H14.3V17.1588H14.1739C14.1739 17.1588 14.0024 17.1639 14.0226 16.9168V15.4798H14.4663C14.4663 15.4798 14.6428 15.4445 14.6579 15.747L14.7638 15.7067C14.7638 15.7067 14.7689 15.4747 14.7941 15.2377C14.7941 15.2377 14.7285 15.2579 14.7134 15.2377C14.7134 15.2377 14.6882 15.3134 14.6126 15.3184H13.0848C13.0848 15.3184 12.999 15.3134 12.9788 15.2377H12.8982Z" fill="black"/>
<path d="M5.24905 15.3184H6.66591C6.66591 15.3184 6.67099 15.5957 6.69113 15.7571L6.57517 15.7924C6.57517 15.7924 6.5903 15.4545 6.32307 15.4697H5.88437V16.1605H6.21462C6.21462 16.1605 6.39364 16.1806 6.40877 15.9285L6.50456 15.9184C6.50456 15.9184 6.47938 16.4529 6.50964 16.5739L6.40373 16.6092C6.40373 16.6092 6.41883 16.3117 6.21462 16.3168H5.87933V16.937C5.87933 16.937 5.84907 17.1185 6.05077 17.1185H6.37851C6.37851 17.1185 6.70122 17.1286 6.75165 16.7908L6.85756 16.8159C6.85756 16.8159 6.77182 17.1689 6.75669 17.2698H5.24905V17.1588H5.3751C5.3751 17.1588 5.49611 17.1639 5.50619 17.0076V15.5655C5.50619 15.5655 5.49106 15.4243 5.38015 15.4293H5.24905V15.3184Z" fill="black"/>
<path d="M7.57858 15.4445V16.2538H7.7601C7.7601 16.2538 8.1282 16.2538 8.11307 15.8491C8.11307 15.8491 8.14837 15.5302 7.82062 15.4445H7.57858ZM6.9483 15.3184H7.89624C7.89624 15.3184 8.51646 15.2881 8.51646 15.7823C8.51646 15.7823 8.57194 16.1605 8.1282 16.3168L8.62234 17.0328C8.62234 17.0328 8.65764 17.1538 8.86438 17.1689V17.2698H8.31981L7.75506 16.3773H7.58867V16.9975C7.58867 16.9975 7.58362 17.1286 7.69962 17.1588H7.86097V17.2698H6.9483V17.1588H7.06931C7.06931 17.1588 7.19031 17.1387 7.2004 17.0177V15.5705C7.2004 15.5705 7.17518 15.4344 7.07435 15.4344H6.9483V15.3184Z" fill="black"/>
<path d="M23.6804 15.4005V15.5334H23.7103C23.7103 15.5334 23.7707 15.5334 23.7682 15.467C23.7682 15.467 23.774 15.4146 23.7201 15.4005H23.6804ZM23.577 15.3798H23.7326C23.7326 15.3798 23.8344 15.3749 23.8344 15.4559C23.8344 15.4559 23.8436 15.5181 23.7707 15.5438L23.8518 15.6613C23.8518 15.6613 23.8576 15.6811 23.8916 15.6836V15.7002H23.8022L23.7094 15.5537H23.6821V15.6555C23.6821 15.6555 23.6813 15.677 23.7003 15.682H23.7268V15.7002H23.577V15.682H23.5968C23.5968 15.682 23.6167 15.6787 23.6184 15.6588V15.4212C23.6184 15.4212 23.6142 15.3989 23.5976 15.3989H23.577V15.3798Z" fill="black"/>
<path d="M11.7687 16.4075H12.2478L12.0082 15.6764L11.7687 16.4075ZM11.1385 17.2698V17.1689H11.2048C11.2048 17.1689 11.325 17.1538 11.3906 17.0025L11.9503 15.3789L12.1721 15.2731C12.1721 15.2731 12.2579 15.2118 12.278 15.3181L12.8837 17.0429C12.8837 17.0429 12.9234 17.1689 13.0948 17.1689V17.2698H12.273V17.1639H12.3688C12.3688 17.1639 12.4948 17.1538 12.4797 17.0529L12.3184 16.5941H11.7082L11.5721 17.0227C11.5721 17.0227 11.5116 17.1488 11.6578 17.1538H11.7889V17.2698H11.1385Z" fill="black"/>
<path d="M20.8018 16.4075H21.2808L21.0413 15.6764L20.8018 16.4075ZM20.1715 17.2698V17.1689H20.2378C20.2378 17.1689 20.358 17.1538 20.4236 17.0025L20.9833 15.3789L21.2051 15.2731C21.2051 15.2731 21.2909 15.2118 21.311 15.3181L21.9167 17.0429C21.9167 17.0429 21.9565 17.1689 22.1279 17.1689V17.2698H21.306V17.1639H21.4018C21.4018 17.1639 21.5279 17.1538 21.5127 17.0529L21.3514 16.5941H20.7413L20.6051 17.0227C20.6051 17.0227 20.5446 17.1488 20.6908 17.1538H20.822V17.2698H20.1715Z" fill="black"/>
<path d="M16.216 16.2058C16.2261 17.1891 16.8968 17.1739 16.8968 17.1739C17.5926 17.1387 17.4917 16.2538 17.4917 16.2538C17.449 15.4275 16.811 15.4142 16.811 15.4142C16.1606 15.4747 16.216 16.2058 16.216 16.2058ZM16.8578 17.3152C16.273 17.3152 15.7989 16.8592 15.7989 16.2966C15.7989 15.7341 16.273 15.2781 16.8578 15.2781C17.4426 15.2781 17.9167 15.7341 17.9167 16.2966C17.9167 16.8592 17.4426 17.3152 16.8578 17.3152Z" fill="black"/>
<path d="M22.1911 15.3184H23.0685V15.4193H22.9626C22.9626 15.4193 22.8013 15.4041 22.8164 15.5504V16.9672C22.8164 16.9672 22.7861 17.1085 22.9525 17.1235C22.9525 17.1235 23.603 17.2698 23.6736 16.7806H23.7795L23.6786 17.2698H22.1911V17.1689H22.292C22.292 17.1689 22.413 17.174 22.4432 17.0126V15.5755C22.4432 15.5755 22.4332 15.4445 22.3172 15.4344H22.1911V15.3184Z" fill="black"/>
<path d="M24 15.5401C24 15.3919 23.8799 15.2718 23.7317 15.2718C23.5835 15.2718 23.4633 15.3919 23.4633 15.5401C23.4633 15.6882 23.5835 15.8083 23.7317 15.8083C23.8799 15.8083 24 15.6882 24 15.5401Z" stroke="black" stroke-width="0.02" stroke-miterlimit="10"/>
</svg>
