<svg width="25" height="18" viewBox="0 0 25 18" fill="none" xmlns="http://www.w3.org/2000/svg">
<g id="Diners Club">
<path id="path22" d="M10.6947 -8.67844e-05H13.5234C13.5234 -8.67844e-05 15.0059 -8.7738e-05 16.2765 0.952891C16.2765 0.952891 18.2582 2.13278 18.2884 4.80268C18.2884 4.80268 18.4245 7.0793 16.3068 8.60711C16.3068 8.60711 15.263 9.49961 13.4781 9.63574H10.6947C10.6947 9.63574 8.7736 9.62061 7.32144 8.03228C7.32144 8.03228 6.0508 6.68599 6.09616 4.81781C6.09616 4.81781 6.03564 2.84375 7.45757 1.40672C7.45757 1.40672 8.63747 0.0906916 10.6947 -8.67844e-05Z" fill="#0079C1"/>
<path id="path26" d="M15.4226 4.80271C15.4226 2.35075 13.4348 0.362993 10.9828 0.362993C8.53084 0.362993 6.54309 2.35075 6.54309 4.80271C6.54309 7.25471 8.53084 9.24243 10.9828 9.24243C13.4348 9.24243 15.4226 7.25471 15.4226 4.80271Z" fill="white"/>
<path id="path30" d="M9.98371 2.19332V7.41211C9.98371 7.41211 8.18362 6.79192 8.18362 4.71953C8.18362 4.71953 8.15337 2.94968 9.98371 2.19332Z" fill="#0079C1"/>
<path id="path34" d="M11.9894 2.19332V7.41211C11.9894 7.41211 13.7895 6.79192 13.7895 4.71953C13.7895 4.71953 13.8198 2.94968 11.9894 2.19332Z" fill="#0079C1"/>
<path id="path38" d="M0.990814 10.8686V13.6444C0.990814 13.6444 0.945424 14.0226 1.36899 14.0604C1.36899 14.0604 2.99513 14.2494 2.96487 12.351C2.96487 12.351 3.00268 11.4207 2.07993 10.982C2.07993 10.982 1.66394 10.7551 0.990814 10.8686ZM0.340365 14.0226C0.529437 13.9167 0.4765 13.6368 0.4765 13.6368V11.1938C0.468951 10.9215 0.378172 10.8988 0.378172 10.8988C0.355494 10.8156 0.0227051 10.7929 0.0227051 10.7929V10.6719H1.59587C3.53967 10.7929 3.52458 12.4418 3.52458 12.4418C3.41112 14.2948 1.57319 14.2116 1.57319 14.2116H0.0227051V14.083C0.294975 14.083 0.340365 14.0226 0.340365 14.0226Z" fill="black"/>
<path id="path42" d="M4.49101 10.8657C4.49101 10.7319 4.38267 10.6236 4.249 10.6236C4.1153 10.6236 4.00696 10.7319 4.00696 10.8657C4.00696 10.9993 4.1153 11.1077 4.249 11.1077C4.38267 11.1077 4.49101 10.9993 4.49101 10.8657Z" fill="black"/>
<path id="path46" d="M3.77666 12.1115L4.34141 11.9149C4.34141 11.9149 4.45737 11.8342 4.45233 12.0132V13.9116C4.45233 13.9116 4.44224 14.0881 4.59855 14.0881H4.79016V14.2122H3.70605V14.0931H3.92288C3.92288 14.0931 4.05401 14.0629 4.04389 13.9116V12.4846C4.04389 12.4846 4.04389 12.2779 3.7817 12.1922L3.77666 12.1115Z" fill="black"/>
<path id="path50" d="M4.97671 12.1468V12.2376C4.97671 12.2376 5.28428 12.3233 5.26411 12.5199V13.9267C5.26411 13.9267 5.27009 14.078 5.12086 14.083H4.94141V14.2122H6.02043V14.0881H5.8339C5.8339 14.0881 5.67759 14.078 5.67759 13.9368V12.419C5.67759 12.419 6.07594 12.1417 6.33308 12.177C6.33308 12.177 6.69613 12.172 6.74152 12.5703V13.9166C6.74152 13.9166 6.74152 14.083 6.59026 14.0881H6.39861V14.2122H7.48776V14.083H7.31128C7.31128 14.083 7.14993 14.1032 7.14488 13.9166V12.6006C7.14488 12.6006 7.17514 11.9391 6.6457 11.8967C6.6457 11.8967 6.23729 11.8039 5.68263 12.2728V11.8893C5.68263 11.8893 5.04224 12.1317 4.97671 12.1468Z" fill="black"/>
<path id="path54" d="M7.89618 12.6612H8.77858C8.77858 12.6612 8.94498 12.6662 8.92481 12.4847C8.92481 12.4847 8.89455 12.0662 8.46092 12.0611C8.46092 12.0611 7.96171 12.0712 7.89618 12.6612ZM8.08779 13.715C8.28444 13.9974 8.61219 13.9974 8.61219 13.9974C8.98028 14.0024 9.31307 13.6495 9.31307 13.6495L9.38368 13.7251C8.90968 14.3705 8.42375 14.2949 8.42375 14.2949C7.28738 14.2696 7.48774 12.9133 7.48774 12.9133C7.66425 11.8594 8.52649 11.8894 8.52649 11.8894C9.37863 11.9646 9.35846 12.7116 9.35846 12.7116C9.37356 12.8225 9.25255 12.8225 9.25255 12.8225H7.876C7.83566 13.4377 8.08779 13.715 8.08779 13.715Z" fill="black"/>
<path id="path58" d="M9.59049 12.1922V12.2627C9.59049 12.2627 9.8527 12.3536 9.8527 12.4644V13.9519C9.8527 13.9519 9.84262 14.0881 9.72158 14.083H9.46948V14.2122H10.7805V14.083H10.4074C10.4074 14.083 10.2409 14.0981 10.2611 13.8864V12.7116C10.2611 12.7116 10.2409 12.409 10.604 12.3132C10.604 12.3132 10.6948 12.2779 10.8259 12.3939C10.8259 12.3939 11.1234 12.5502 11.204 12.1922C11.204 12.1922 11.2242 12.0005 11.0578 11.9299C11.0578 11.9299 10.8259 11.814 10.604 12.0106C10.604 12.0106 10.4754 12.0901 10.2561 12.4191V11.9653C10.2561 11.9653 10.2561 11.8367 10.1351 11.9237C10.1351 11.9237 9.6283 12.177 9.59049 12.1922Z" fill="black"/>
<path id="path62" d="M12.646 12.5704H12.767L12.7368 12.0611C12.7368 12.0611 12.2427 11.7435 11.7586 11.9805C11.7586 11.9805 11.3653 12.1468 11.3602 12.5704C11.3602 12.5704 11.325 12.9335 11.7132 13.1452L12.1468 13.3519C12.1468 13.3519 12.5149 13.5082 12.4746 13.8008C12.4746 13.8008 12.4586 14.1335 12.0632 14.1335C12.0632 14.1335 11.5468 14.1537 11.4308 13.5234L11.325 13.5436L11.3854 14.1336C11.3854 14.1336 11.7434 14.3204 12.0107 14.2976C12.0107 14.2976 12.883 14.3352 12.883 13.5688C12.883 13.5688 12.9183 13.1906 12.4393 12.994L11.9199 12.7469C11.9199 12.7469 11.6729 12.6058 11.7081 12.3612C11.7081 12.3612 11.7434 12.0409 12.1519 12.0611C12.1519 12.0611 12.5956 12.0611 12.646 12.5704Z" fill="black"/>
<path id="path66" d="M17.3404 11.6023H17.4715L17.4312 10.8712C17.4312 10.8712 16.211 10.2712 15.263 10.8409C15.263 10.8409 14.2797 11.2947 14.2949 12.4141C14.2949 12.4141 14.2092 13.4679 15.1571 14.0327C15.1571 14.0327 16.0597 14.6277 17.3606 14.0327L17.4715 13.2864L17.3606 13.2562C17.3606 13.2562 17.2161 14.0885 16.3471 14.1335C16.3471 14.1335 15.6714 14.1739 15.1773 13.4932C15.1773 13.4932 14.7739 12.999 14.8243 12.273C14.8243 12.273 14.8196 11.3685 15.495 10.9821C15.495 10.9821 15.863 10.73 16.3017 10.7653C16.3017 10.7653 17.2143 10.7149 17.3404 11.6023Z" fill="black"/>
<path id="path70" d="M17.7236 10.619V10.6896C17.7236 10.6896 18.001 10.7099 17.9959 11.0023V13.9319C17.9959 13.9319 17.9959 14.068 17.8598 14.0781H17.6581V14.2192H18.7422V14.0831H18.5506C18.5506 14.0831 18.3943 14.0932 18.3943 13.9067V10.4173C18.3943 10.4173 18.4094 10.2863 18.3136 10.3619C18.3136 10.3619 17.9606 10.5334 17.7236 10.619Z" fill="black"/>
<path id="path74" d="M18.7422 12.0106L19.3523 11.9753C19.3523 11.9753 19.4733 11.935 19.4532 12.0812V13.4931C19.4532 13.4931 19.3976 14.0225 19.8868 14.0275C19.8868 14.0275 20.1086 14.0427 20.5171 13.7098V12.3333C20.5171 12.3333 20.4767 12.2173 20.0834 12.1417V12.056L20.8045 11.9904C20.8045 11.9904 20.9204 11.9249 20.9204 12.066V13.9166C20.9204 13.9166 20.8851 14.0378 21.0415 14.0277H21.2583V14.1334C21.2583 14.1334 20.6179 14.2488 20.5171 14.297L20.5019 14.2695V13.8864C20.5019 13.8864 19.9624 14.3598 19.5742 14.297C19.5742 14.297 19.0548 14.2998 19.0447 13.7048V12.3182C19.0447 12.3182 19.0347 12.1115 18.7422 12.1115V12.0106Z" fill="black"/>
<path id="path78" d="M21.9239 12.4191V13.6192C21.9239 13.6192 21.9565 14.1486 22.4432 14.1587C22.4432 14.1587 23.1627 14.2421 23.2198 13.1805C23.2198 13.1805 23.2046 12.2829 22.4181 12.1771C22.4181 12.1771 22.2063 12.1317 21.9239 12.4191ZM21.5558 14.2444L21.4449 14.1839C21.4449 14.1839 21.5003 13.9368 21.5256 13.3419V10.972C21.5256 10.972 21.5054 10.7198 21.2583 10.7047V10.5952C21.2583 10.5952 21.5003 10.5333 21.8331 10.3618C21.8331 10.3618 21.9239 10.2811 21.9289 10.4425V12.2527C21.9289 12.2527 22.5491 11.6376 23.1542 12.0258C23.1542 12.0258 23.613 12.2779 23.6282 12.9486C23.6282 12.9486 23.6282 14.2187 22.4181 14.2971C22.4181 14.2971 21.9743 14.305 21.7071 14.1133L21.5558 14.2444Z" fill="black"/>
<path id="path82" d="M0 15.3184H0.862233V15.4193H0.751314C0.751314 15.4193 0.625233 15.4293 0.625233 15.5554V17.0176C0.625233 17.0176 0.605093 17.1538 0.741228 17.1588H0.862233V17.2698H0V17.1639H0.121005C0.121005 17.1639 0.231957 17.1588 0.242044 17.0227V15.5453C0.242044 15.5453 0.216827 15.4193 0.115962 15.4293H0V15.3184Z" fill="black"/>
<path id="path86" d="M14.8798 15.3184H15.742V15.4193H15.631C15.631 15.4193 15.505 15.4293 15.505 15.5554V17.0176C15.505 17.0176 15.4848 17.1538 15.621 17.1588H15.742V17.2698H14.8798V17.1639H15.0008C15.0008 17.1639 15.1117 17.1588 15.1218 17.0227V15.5453C15.1218 15.5453 15.0966 15.4193 14.9957 15.4293H14.8798V15.3184Z" fill="black"/>
<path id="path90" d="M0.942871 15.3184H1.5177L2.74295 16.6748V15.6361C2.74295 15.6361 2.74295 15.4596 2.5816 15.4344H2.44547V15.3184H3.19678V15.4294H3.10096C3.10096 15.4294 2.93456 15.4092 2.91439 15.6613V17.0782C2.91439 17.0782 2.89929 17.2648 2.92952 17.3152H2.79843L1.39667 15.7571V16.9118C1.39667 16.9118 1.37148 17.1538 1.54796 17.1588H1.70424V17.2698H0.942871V17.1639H1.05379C1.05379 17.1639 1.2101 17.1588 1.23531 16.9118V15.6512C1.23531 15.6512 1.21514 15.4798 1.05379 15.4344H0.942871V15.3184Z" fill="black"/>
<path id="path94" d="M8.92676 15.3184H9.50156L10.7268 16.6748V15.6361C10.7268 15.6361 10.7268 15.4596 10.5655 15.4344H10.4294V15.3184H11.1807V15.4294H11.0848C11.0848 15.4294 10.9185 15.4092 10.8983 15.6613V17.0782C10.8983 17.0782 10.8831 17.2648 10.9134 17.3152H10.7823L9.38055 15.7571V16.9118C9.38055 16.9118 9.35537 17.1538 9.53182 17.1588H9.68813V17.2698H8.92676V17.1639H9.03768C9.03768 17.1639 9.19398 17.1588 9.2192 16.9118V15.6512C9.2192 15.6512 9.19903 15.4798 9.03768 15.4344H8.92676V15.3184Z" fill="black"/>
<path id="path98" d="M17.9456 15.3184H18.5204L19.7456 16.6748V15.6361C19.7456 15.6361 19.7456 15.4596 19.5843 15.4344H19.4482V15.3184H20.1994V15.4294H20.1036C20.1036 15.4294 19.9372 15.4092 19.9171 15.6613V17.0782C19.9171 17.0782 19.9019 17.2648 19.9322 17.3152H19.8011L18.3994 15.7571V16.9118C18.3994 16.9118 18.3741 17.1538 18.5506 17.1588H18.7069V17.2698H17.9456V17.1639H18.0565C18.0565 17.1639 18.2128 17.1588 18.238 16.9118V15.6512C18.238 15.6512 18.2178 15.4798 18.0565 15.4344H17.9456V15.3184Z" fill="black"/>
<path id="path102" d="M3.29266 15.2377C3.29266 15.2377 3.28762 15.5251 3.23718 15.7268H3.35318C3.35318 15.7268 3.34309 15.4646 3.55992 15.4823H4.03389V16.9218C4.03389 16.9218 4.06919 17.1336 3.91792 17.1639H3.75153V17.2698H4.69442V17.1588H4.56837C4.56837 17.1588 4.39694 17.1639 4.41711 16.9168V15.4798H4.86082C4.86082 15.4798 5.0373 15.4445 5.05243 15.747L5.1583 15.7067C5.1583 15.7067 5.16335 15.4747 5.18856 15.2377C5.18856 15.2377 5.123 15.2579 5.1079 15.2377C5.1079 15.2377 5.08269 15.3134 5.00704 15.3184H3.47923C3.47923 15.3184 3.39352 15.3134 3.37335 15.2377H3.29266Z" fill="black"/>
<path id="path106" d="M12.8982 15.2377C12.8982 15.2377 12.8932 15.5251 12.8428 15.7268H12.9587C12.9587 15.7268 12.9487 15.4646 13.1655 15.4823H13.6394V16.9218C13.6394 16.9218 13.6747 17.1336 13.5235 17.1639H13.3571V17.2698H14.3V17.1588H14.1739C14.1739 17.1588 14.0025 17.1639 14.0227 16.9168V15.4798H14.4664C14.4664 15.4798 14.6429 15.4445 14.658 15.747L14.7639 15.7067C14.7639 15.7067 14.7689 15.4747 14.7942 15.2377C14.7942 15.2377 14.7286 15.2579 14.7135 15.2377C14.7135 15.2377 14.6882 15.3134 14.6126 15.3184H13.0848C13.0848 15.3184 12.9991 15.3134 12.9789 15.2377H12.8982Z" fill="black"/>
<path id="path110" d="M5.24902 15.3184H6.66588C6.66588 15.3184 6.67096 15.5957 6.6911 15.7571L6.57514 15.7924C6.57514 15.7924 6.59027 15.4545 6.32304 15.4697H5.88434V16.1605H6.21459C6.21459 16.1605 6.39361 16.1806 6.40874 15.9285L6.50453 15.9184C6.50453 15.9184 6.47935 16.4529 6.50961 16.5739L6.4037 16.6092C6.4037 16.6092 6.4188 16.3117 6.21459 16.3168H5.8793V16.937C5.8793 16.937 5.84904 17.1185 6.05074 17.1185H6.37848C6.37848 17.1185 6.70119 17.1286 6.75162 16.7908L6.85753 16.8159C6.85753 16.8159 6.77179 17.1689 6.75666 17.2698H5.24902V17.1588H5.37507C5.37507 17.1588 5.49608 17.1639 5.50616 17.0076V15.5655C5.50616 15.5655 5.49103 15.4243 5.38012 15.4293H5.24902V15.3184Z" fill="black"/>
<path id="path114" d="M7.57864 15.4445V16.2538H7.76016C7.76016 16.2538 8.12826 16.2538 8.11313 15.8491C8.11313 15.8491 8.14843 15.5302 7.82068 15.4445H7.57864ZM6.94836 15.3184H7.8963C7.8963 15.3184 8.51652 15.2881 8.51652 15.7823C8.51652 15.7823 8.572 16.1605 8.12826 16.3168L8.6224 17.0328C8.6224 17.0328 8.6577 17.1538 8.86444 17.1689V17.2698H8.31987L7.75512 16.3773H7.58873V16.9975C7.58873 16.9975 7.58368 17.1286 7.69968 17.1588H7.86103V17.2698H6.94836V17.1588H7.06937C7.06937 17.1588 7.19037 17.1387 7.20046 17.0177V15.5705C7.20046 15.5705 7.17524 15.4344 7.07441 15.4344H6.94836V15.3184Z" fill="black"/>
<path id="path118" d="M23.6804 15.4005V15.5334H23.7102C23.7102 15.5334 23.7706 15.5334 23.7681 15.467C23.7681 15.467 23.7739 15.4146 23.7201 15.4005H23.6804ZM23.5769 15.3798H23.7325C23.7325 15.3798 23.8343 15.3749 23.8343 15.4559C23.8343 15.4559 23.8435 15.5181 23.7706 15.5438L23.8517 15.6613C23.8517 15.6613 23.8576 15.6811 23.8915 15.6836V15.7002H23.8021L23.7093 15.5537H23.682V15.6555C23.682 15.6555 23.6812 15.677 23.7002 15.682H23.7268V15.7002H23.5769V15.682H23.5968C23.5968 15.682 23.6166 15.6787 23.6183 15.6588V15.4212C23.6183 15.4212 23.6142 15.3989 23.5976 15.3989H23.5769V15.3798Z" fill="black"/>
<path id="path122" d="M11.7687 16.4075H12.2477L12.0082 15.6764L11.7687 16.4075ZM11.1384 17.2698V17.1689H11.2047C11.2047 17.1689 11.325 17.1538 11.3905 17.0025L11.9502 15.3789L12.1721 15.2731C12.1721 15.2731 12.2578 15.2118 12.278 15.3181L12.8836 17.0429C12.8836 17.0429 12.9234 17.1689 13.0948 17.1689V17.2698H12.2729V17.1639H12.3688C12.3688 17.1639 12.4948 17.1538 12.4797 17.0529L12.3183 16.5941H11.7082L11.572 17.0227C11.572 17.0227 11.5115 17.1488 11.6578 17.1538H11.7889V17.2698H11.1384Z" fill="black"/>
<path id="path126" d="M20.8018 16.4075H21.2808L21.0413 15.6764L20.8018 16.4075ZM20.1715 17.2698V17.1689H20.2378C20.2378 17.1689 20.3581 17.1538 20.4236 17.0025L20.9833 15.3789L21.2052 15.2731C21.2052 15.2731 21.2909 15.2118 21.3111 15.3181L21.9167 17.0429C21.9167 17.0429 21.9565 17.1689 22.1279 17.1689V17.2698H21.306V17.1639H21.4018C21.4018 17.1639 21.5279 17.1538 21.5128 17.0529L21.3514 16.5941H20.7413L20.6052 17.0227C20.6052 17.0227 20.5446 17.1488 20.6909 17.1538H20.822V17.2698H20.1715Z" fill="black"/>
<path id="path130" d="M16.2161 16.2058C16.2262 17.1891 16.8968 17.1739 16.8968 17.1739C17.5926 17.1387 17.4918 16.2538 17.4918 16.2538C17.449 15.4275 16.811 15.4142 16.811 15.4142C16.1606 15.4747 16.2161 16.2058 16.2161 16.2058ZM16.8578 17.3152C16.273 17.3152 15.799 16.8592 15.799 16.2966C15.799 15.7341 16.273 15.2781 16.8578 15.2781C17.4427 15.2781 17.9167 15.7341 17.9167 16.2966C17.9167 16.8592 17.4427 17.3152 16.8578 17.3152Z" fill="black"/>
<path id="path134" d="M22.1912 15.3184H23.0686V15.4193H22.9626C22.9626 15.4193 22.8013 15.4041 22.8164 15.5504V16.9672C22.8164 16.9672 22.7861 17.1085 22.9526 17.1235C22.9526 17.1235 23.603 17.2698 23.6736 16.7806H23.7795L23.6786 17.2698H22.1912V17.1689H22.292C22.292 17.1689 22.413 17.174 22.4433 17.0126V15.5755C22.4433 15.5755 22.4332 15.4445 22.3172 15.4344H22.1912V15.3184Z" fill="black"/>
<path id="path138" d="M24 15.5401C24 15.3919 23.8799 15.2718 23.7317 15.2718C23.5835 15.2718 23.4634 15.3919 23.4634 15.5401C23.4634 15.6882 23.5835 15.8083 23.7317 15.8083C23.8799 15.8083 24 15.6882 24 15.5401Z" stroke="black" stroke-width="0.02" stroke-miterlimit="10"/>
</g>
</svg>
