<svg width="21" height="22" viewBox="0 0 21 22" fill="none" xmlns="http://www.w3.org/2000/svg">
<path fill-rule="evenodd" clip-rule="evenodd" d="M10.6016 1C16.124 1 20.6009 5.47694 20.6009 11C20.6009 16.5231 16.124 21 10.6016 21C5.07851 21 0.601562 16.5231 0.601562 11C0.601562 5.47694 5.07851 1 10.6016 1Z" fill="#080A0F"/>
<path d="M10.6016 1C16.124 1 20.6009 5.47694 20.6009 11C20.6009 16.5231 16.124 21 10.6016 21C5.07851 21 0.601562 16.5231 0.601562 11C0.601562 5.47694 5.07851 1 10.6016 1Z" stroke="#1B181A" stroke-width="0.756" stroke-miterlimit="22.926"/>
<path fill-rule="evenodd" clip-rule="evenodd" d="M7.62366 10.2308L4.55378 11.5538C4.54942 11.501 4.54693 11.4474 4.54693 11.3933C4.54693 10.4225 5.33354 9.63462 6.30497 9.63462C6.83021 9.63462 7.3013 9.8655 7.62366 10.2308ZM6.30497 8.32029C7.7531 8.32029 8.96724 9.32222 9.29271 10.6714L8.05368 11.2128L8.05306 11.2103L6.78602 11.7673L3.74663 13.0959C3.42116 12.6087 3.23135 12.0231 3.23135 11.3933C3.23135 9.69623 4.60729 8.32029 6.30497 8.32029Z" fill="white"/>
<path fill-rule="evenodd" clip-rule="evenodd" d="M8.45202 13.5917C7.35177 14.6359 5.89617 14.7386 4.61731 13.962L5.33982 12.8636C6.06731 13.2979 6.79915 13.2276 7.53286 12.6507L8.45202 13.5917Z" fill="white"/>
<path fill-rule="evenodd" clip-rule="evenodd" d="M9.70331 12.8307L9.69522 7.01948H10.7967V12.6739C10.7967 12.728 10.8036 12.7759 10.8745 12.8039L11.8323 13.1761L11.401 14.2981L10.279 13.8233C9.85329 13.6434 9.70393 13.3827 9.70331 12.8307Z" fill="white"/>
<path fill-rule="evenodd" clip-rule="evenodd" d="M13.8492 12.7332C13.4366 12.4121 13.1703 11.9117 13.1703 11.3479C13.1703 10.8476 13.3806 10.3964 13.7173 10.0765L13.0066 8.924C12.2916 9.4903 11.8323 10.3653 11.8323 11.3479C11.8323 12.4077 12.365 13.3424 13.1778 13.8994L13.8492 12.7332Z" fill="#43A0DB"/>
<path fill-rule="evenodd" clip-rule="evenodd" d="M14.3312 9.69756C14.5166 9.63097 14.7157 9.59425 14.9242 9.59425C15.6754 9.59425 16.3157 10.0666 16.5659 10.73L17.9281 10.6161C17.5996 9.26194 16.3798 8.25627 14.9242 8.25627C14.5135 8.25627 14.1208 8.33717 13.7624 8.4828L14.3312 9.69756Z" fill="#EFEF25"/>
<path fill-rule="evenodd" clip-rule="evenodd" d="M16.6764 11.4332C16.6322 12.3623 15.8643 13.1022 14.9246 13.1022C14.7771 13.1022 14.634 13.0835 14.4971 13.0493L13.9631 14.2865C14.2656 14.386 14.5892 14.4402 14.9246 14.4402C16.5893 14.4402 17.9466 13.124 18.0132 11.4748L16.6764 11.4332Z" fill="#EC3321"/>
</svg>
