<svg width="29" height="13" viewBox="0 0 29 13" fill="none" xmlns="http://www.w3.org/2000/svg">
<g id="Hipercard">
<path id="path24" fill-rule="evenodd" clip-rule="evenodd" d="M7.85158 -4.86374e-05H4.8876C3.5777 0.0617161 2.50699 0.589392 2.19781 1.67723C2.0368 2.24489 1.9479 2.86789 1.82187 3.4559C1.18102 6.44666 0.613003 9.51917 0 12.45H23.0778C24.8622 12.45 26.0871 12.0729 26.4184 10.657C26.5723 9.99901 26.7194 9.25391 26.8668 8.5313C27.4402 5.71334 28.0143 2.89574 28.6016 -4.86374e-05H7.85158Z" fill="#961A1F"/>
<path id="path28" fill-rule="evenodd" clip-rule="evenodd" d="M19.781 7.43245C19.4607 7.74627 18.5614 7.83516 18.6532 7.08542C18.7299 6.46278 19.4076 6.33033 20.1427 6.4203C20.0877 6.76089 20.0256 7.1936 19.781 7.43245ZM18.7688 5.00328C18.7381 5.17501 18.6914 5.33067 18.6532 5.4949C19.0202 5.40279 20.1626 5.12074 20.2726 5.61057C20.309 5.77338 20.2465 5.94617 20.2005 6.07327C19.1673 5.97545 18.3254 6.14682 18.1037 6.88299C17.9556 7.37604 18.1205 7.86123 18.4361 7.99654C19.0448 8.25716 19.7853 7.95869 20.0413 7.54812C20.0148 7.69021 19.9895 7.83374 19.9977 8.01082H20.5329C20.5386 7.4985 20.6132 7.08364 20.6921 6.62273C20.7592 6.23 20.8856 5.84121 20.8656 5.4949C20.8196 4.70124 19.505 4.98186 18.7688 5.00328ZM24.1334 7.67808C23.715 7.68736 23.5069 7.42816 23.4972 6.99867C23.4804 6.24643 23.8107 5.41064 24.4804 5.33567C24.7925 5.30104 25.0185 5.37351 25.247 5.4517C25.0374 6.29641 25.1131 7.65737 24.1334 7.67808ZM25.5215 3.70195C25.4687 4.16893 25.3969 4.61842 25.3048 5.04648C23.7796 4.56379 22.8442 5.6859 22.861 7.07114C22.8646 7.33891 22.9106 7.60453 23.0777 7.79411C23.3665 8.12042 24.1934 8.19861 24.6108 7.92406C24.6914 7.87122 24.7739 7.77447 24.8278 7.70735C24.8678 7.65665 24.9317 7.52456 24.9431 7.56276C24.9214 7.70949 24.8885 7.84552 24.8857 8.01082H25.4494C25.5583 6.45171 25.8942 5.12003 26.1434 3.70195H25.5215ZM9.60129 7.44708C9.2689 7.79911 8.45097 7.79411 8.3867 7.2011C8.35886 6.94297 8.4549 6.67271 8.50238 6.40601C8.55058 6.13575 8.58521 5.87655 8.63233 5.63949C8.96008 5.23927 9.92296 5.19108 10.0204 5.8562C10.1054 6.43386 9.87691 7.15504 9.60129 7.44708ZM10.0929 5.00328C9.56666 4.80549 8.92545 5.04148 8.64697 5.26605C8.64804 5.27569 8.64055 5.27712 8.63233 5.27783L8.64697 5.26605C8.64697 5.26534 8.64697 5.26462 8.64662 5.26355C8.65161 5.1668 8.68553 5.09968 8.69053 5.00328H8.15536C7.93222 6.4867 7.66802 7.92835 7.38919 9.35571H8.01076C8.10073 8.79983 8.16 8.21361 8.28567 7.69271C8.4274 8.24038 9.35459 8.13578 9.74624 7.92406C10.5531 7.48778 11.1757 5.40993 10.0929 5.00328ZM13.043 6.04435H11.5824C11.6284 5.7084 11.9308 5.3396 12.4067 5.32139C12.8545 5.30425 13.1751 5.48562 13.043 6.04435ZM12.4499 4.94545C12.0005 4.98008 11.6209 5.10932 11.351 5.39386C11.0201 5.74231 10.752 6.51348 10.8305 7.21574C10.9423 8.21753 12.1897 8.18147 13.1872 7.93834C13.2043 7.76269 13.2468 7.61238 13.274 7.44708C12.863 7.60096 12.1497 7.81553 11.7266 7.54812C11.4078 7.3464 11.406 6.83551 11.5099 6.39138C12.1804 6.36996 12.8773 6.37424 13.5489 6.39138C13.5913 6.07684 13.7134 5.73339 13.6067 5.42278C13.466 5.01221 12.9623 4.90582 12.4499 4.94545ZM6.98397 5.00328C6.96719 5.00578 6.96827 5.02613 6.96969 5.04648C6.8326 6.07113 6.64695 7.04722 6.44916 8.01082H7.07073C7.22032 6.97939 7.39133 5.96974 7.60555 5.00328H6.98397ZM23.2084 5.01756C22.6586 4.74302 22.2009 5.20393 22.0224 5.48026C22.0734 5.33852 22.0763 5.14859 22.1238 5.00328H21.5739C21.4258 6.03578 21.2473 7.0383 21.0391 8.01082H21.6753C21.6793 7.61238 21.7575 7.31749 21.8199 6.92655C21.9527 6.09184 22.148 5.17644 23.1213 5.4517C23.1538 5.31032 23.167 5.15002 23.2084 5.01756ZM16.224 7.30249C16.1665 7.15433 16.1519 6.90977 16.1662 6.72412C16.1983 6.30605 16.3507 5.7973 16.5857 5.56702C16.9098 5.24927 17.55 5.30211 18.0605 5.48026C18.0762 5.30818 18.1105 5.15502 18.1326 4.98865C17.2954 4.85191 16.5007 4.93723 16.0794 5.37922C15.6671 5.81193 15.3968 6.80659 15.5878 7.43245C15.8116 8.16469 16.8142 8.20468 17.6267 7.92406C17.6624 7.77697 17.6814 7.61274 17.7135 7.46137C17.2697 7.692 16.4211 7.8116 16.224 7.30249ZM15.8766 5.00328C15.3257 4.7805 14.8923 5.1568 14.6913 5.50918C14.7367 5.35245 14.7556 5.16894 14.7924 5.00328H14.2429C14.1087 6.04507 13.9109 7.0233 13.7224 8.01082H14.3439C14.4314 7.42459 14.4689 6.63415 14.6624 6.07327C14.817 5.62521 15.2215 5.2432 15.8045 5.4517C15.8131 5.28604 15.8602 5.16001 15.8766 5.00328ZM5.85615 3.78834C5.76761 4.36493 5.66728 4.93009 5.56696 5.4949C4.9229 5.50168 4.26527 5.52667 3.6437 5.48026C3.76115 4.92759 3.84541 4.34208 3.9618 3.78834H3.26811C3.01927 5.19822 2.79327 6.63022 2.51587 8.01082H3.22455C3.33559 7.30285 3.43948 6.58702 3.58586 5.9144C4.19029 5.8994 4.91397 5.87334 5.49449 5.92868C5.37489 6.62844 5.23029 7.30321 5.1189 8.01082H5.82723C6.05501 6.5806 6.29492 5.16251 6.57911 3.78834H5.85615ZM7.62018 4.42491C7.74407 4.33923 7.90366 3.95043 7.72158 3.78834C7.66374 3.73729 7.56699 3.7223 7.43239 3.74514C7.30743 3.76621 7.23532 3.80905 7.1864 3.87546C7.10786 3.98221 7.0361 4.30495 7.15748 4.42491C7.27602 4.54166 7.54128 4.47918 7.62018 4.42491Z" fill="white"/>
</g>
</svg>
