<svg width="12" height="12" viewBox="0 0 12 12" fill="none" xmlns="http://www.w3.org/2000/svg">
<g id="bxl-instagram">
<path id="Combined Shape" fill-rule="evenodd" clip-rule="evenodd" d="M11.6824 2.06653C11.3699 1.26214 10.7335 0.626081 9.92783 0.315369C9.46204 0.140386 8.96959 0.0465735 8.47115 0.0359281C7.82943 0.00798403 7.62619 0 5.99891 0C4.37163 0 4.16306 0 3.52668 0.0359281C3.02956 0.0459082 2.53712 0.139721 2.07132 0.315369C1.26502 0.626081 0.628632 1.26214 0.31677 2.06653C0.141515 2.53227 0.0475564 3.02329 0.0375609 3.52096C0.00890696 4.16101 0.000244141 4.36394 0.000244141 5.98935C0.000244141 7.61411 0.000244141 7.82102 0.0375609 8.45775C0.0475564 8.95542 0.141515 9.44644 0.31677 9.91284C0.629298 10.7166 1.26568 11.3526 2.07199 11.664C2.53578 11.845 3.02823 11.9474 3.52801 11.9634C4.16972 11.9914 4.37297 12 6.00024 12C7.62752 12 7.83609 12 8.47248 11.9634C8.97026 11.9534 9.46271 11.8589 9.92916 11.6846C10.7348 11.3726 11.3712 10.7372 11.6837 9.9328C11.859 9.46707 11.9529 8.97605 11.9629 8.47838C11.9916 7.83832 12.0002 7.6354 12.0002 6.00998C12.0002 4.38456 12.0002 4.17831 11.9629 3.54158C11.9543 3.03726 11.861 2.53759 11.6824 2.06653ZM10.8707 8.40852C10.8661 8.79175 10.7968 9.17166 10.6635 9.5316C10.4603 10.0552 10.0464 10.4691 9.52268 10.67C9.16617 10.8024 8.79034 10.8716 8.40984 10.8769C7.77679 10.9062 7.5982 10.9135 5.97492 10.9135C4.35031 10.9135 4.18438 10.9135 3.53934 10.8769C3.16017 10.8723 2.78301 10.8024 2.42717 10.67C1.9014 10.4697 1.48492 10.0559 1.28167 9.5316C1.15107 9.17631 1.08043 8.8004 1.07443 8.42116C1.04578 7.78909 1.03912 7.61078 1.03912 5.99002C1.03912 4.3686 1.03912 4.20293 1.07443 3.55822C1.0791 3.17498 1.1484 2.79574 1.28167 2.4358C1.48492 1.91085 1.9014 1.49767 2.42717 1.29674C2.78301 1.165 3.16017 1.09514 3.53934 1.08982C4.17306 1.06121 4.35098 1.05323 5.97492 1.05323C7.59887 1.05323 7.76546 1.05323 8.40984 1.08982C8.79034 1.09448 9.16617 1.16434 9.52268 1.29674C10.0464 1.49834 10.4603 1.91218 10.6635 2.4358C10.7941 2.79108 10.8647 3.167 10.8707 3.54624C10.8994 4.17898 10.9067 4.35662 10.9067 5.97804C10.9067 7.5988 10.9067 7.77312 10.8781 8.40918H10.8707V8.40852ZM10.0002 2.75C10.0002 3.16421 9.66446 3.5 9.25024 3.5C8.83603 3.5 8.50024 3.16421 8.50024 2.75C8.50024 2.33579 8.83603 2 9.25024 2C9.66446 2 10.0002 2.33579 10.0002 2.75ZM3.00024 5.99968C3.00024 4.34314 4.34288 3 6.00024 3C7.65631 3 9.00024 4.34314 9.00024 5.99968C9.00024 7.65686 7.65631 9 6.00024 9C4.34288 9 3.00024 7.65686 3.00024 5.99968ZM4.05086 6.00032C4.05086 7.07613 4.92367 7.94885 6.00024 7.94885C7.07682 7.94885 7.94833 7.07613 7.94833 6.00032C7.94833 4.92387 7.07682 4.0518 6.00024 4.0518C4.92367 4.0518 4.05086 4.92387 4.05086 6.00032Z" fill="#5E5873"/>
</g>
</svg>
