<svg width="24" height="19" viewBox="0 0 24 19" fill="none" xmlns="http://www.w3.org/2000/svg">
<path d="M24 14.7579C24 16.8117 22.3276 18.4841 20.2738 18.4841H0V3.72616C0 1.67237 1.67237 0 3.72616 0H24V14.7579Z" fill="white"/>
<path d="M17.3985 10.973H18.9389C18.9829 10.973 19.0856 10.9583 19.1296 10.9583C19.423 10.8997 19.6724 10.6356 19.6724 10.2689C19.6724 9.91678 19.423 9.65272 19.1296 9.57937C19.0856 9.5647 18.9976 9.5647 18.9389 9.5647H17.3985V10.973Z" fill="url(#paint0_linear_1_9553)"/>
<path d="M18.7628 1.24683C17.2959 1.24683 16.0929 2.43509 16.0929 3.91675V6.68937H19.8631C19.9511 6.68937 20.0538 6.68937 20.1271 6.70404C20.978 6.74805 21.6088 7.18815 21.6088 7.95098C21.6088 8.55245 21.1834 9.0659 20.3912 9.16859V9.19793C21.2567 9.25661 21.9169 9.74071 21.9169 10.4889C21.9169 11.2957 21.1834 11.8238 20.2152 11.8238H16.0782V17.2517H19.9951C21.4621 17.2517 22.665 16.0635 22.665 14.5818V1.24683H18.7628Z" fill="url(#paint1_linear_1_9553)"/>
<path d="M19.4817 8.12717C19.4817 7.77509 19.2323 7.54037 18.9389 7.49636C18.9095 7.49636 18.8362 7.48169 18.7922 7.48169H17.3985V8.77264H18.7922C18.8362 8.77264 18.9242 8.77264 18.9389 8.75797C19.2323 8.71396 19.4817 8.47924 19.4817 8.12717Z" fill="url(#paint2_linear_1_9553)"/>
<path d="M4.00488 1.24683C2.53789 1.24683 1.33495 2.43509 1.33495 3.91675V10.5035C2.08312 10.8703 2.86062 11.105 3.63813 11.105C4.56234 11.105 5.06111 10.5476 5.06111 9.78472V6.6747H7.34962V9.77005C7.34962 10.973 6.60146 11.9559 4.06356 11.9559C2.52322 11.9559 1.32028 11.6185 1.32028 11.6185V17.237H5.23715C6.70415 17.237 7.90708 16.0488 7.90708 14.5671V1.24683H4.00488Z" fill="url(#paint3_linear_1_9553)"/>
<path d="M11.3839 1.24683C9.91686 1.24683 8.71393 2.43509 8.71393 3.91675V7.4082C9.38874 6.83607 10.5623 6.46932 12.4548 6.55734C13.467 6.60135 14.5526 6.88008 14.5526 6.88008V8.00966C14.0098 7.73093 13.3643 7.48154 12.5281 7.42286C11.0905 7.32018 10.2249 8.02433 10.2249 9.25661C10.2249 10.5035 11.0905 11.2077 12.5281 11.0903C13.3643 11.0317 14.0098 10.7676 14.5526 10.5035V11.6331C14.5526 11.6331 13.4817 11.9119 12.4548 11.9559C10.5623 12.0439 9.38874 11.6771 8.71393 11.105V17.2664H12.6308C14.0978 17.2664 15.3007 16.0781 15.3007 14.5965V1.24683H11.3839Z" fill="url(#paint4_linear_1_9553)"/>
<defs>
<linearGradient id="paint0_linear_1_9553" x1="16.0905" y1="10.2706" x2="22.6827" y2="10.2706" gradientUnits="userSpaceOnUse">
<stop stop-color="#007940"/>
<stop offset="0.2285" stop-color="#00873F"/>
<stop offset="0.7433" stop-color="#40A737"/>
<stop offset="1" stop-color="#5CB531"/>
</linearGradient>
<linearGradient id="paint1_linear_1_9553" x1="16.0903" y1="9.24286" x2="22.6831" y2="9.24286" gradientUnits="userSpaceOnUse">
<stop stop-color="#007940"/>
<stop offset="0.2285" stop-color="#00873F"/>
<stop offset="0.7433" stop-color="#40A737"/>
<stop offset="1" stop-color="#5CB531"/>
</linearGradient>
<linearGradient id="paint2_linear_1_9553" x1="16.0903" y1="8.12533" x2="22.6828" y2="8.12533" gradientUnits="userSpaceOnUse">
<stop stop-color="#007940"/>
<stop offset="0.2285" stop-color="#00873F"/>
<stop offset="0.7433" stop-color="#40A737"/>
<stop offset="1" stop-color="#5CB531"/>
</linearGradient>
<linearGradient id="paint3_linear_1_9553" x1="1.33185" y1="9.24286" x2="8.02618" y2="9.24286" gradientUnits="userSpaceOnUse">
<stop stop-color="#1F286F"/>
<stop offset="0.4751" stop-color="#004E94"/>
<stop offset="0.8261" stop-color="#0066B1"/>
<stop offset="1" stop-color="#006FBC"/>
</linearGradient>
<linearGradient id="paint4_linear_1_9553" x1="8.676" y1="9.24286" x2="15.1777" y2="9.24286" gradientUnits="userSpaceOnUse">
<stop stop-color="#6C2C2F"/>
<stop offset="0.1735" stop-color="#882730"/>
<stop offset="0.5731" stop-color="#BE1833"/>
<stop offset="0.8585" stop-color="#DC0436"/>
<stop offset="1" stop-color="#E60039"/>
</linearGradient>
</defs>
</svg>
