<svg width="12" height="12" viewBox="0 0 12 12" fill="none" xmlns="http://www.w3.org/2000/svg">
<g id="bxl-linkedin">
<path id="Combined Shape" fill-rule="evenodd" clip-rule="evenodd" d="M1.88397 3.28234C2.64717 3.28234 3.26586 2.66365 3.26586 1.90045C3.26586 1.13725 2.64717 0.518555 1.88397 0.518555C1.12077 0.518555 0.502075 1.13725 0.502075 1.90045C0.502075 2.66365 1.12077 3.28234 1.88397 3.28234ZM4.57071 4.3295V11.9962H6.95113V8.20487C6.95113 7.20445 7.13934 6.23561 8.37976 6.23561C9.60313 6.23561 9.61829 7.3794 9.61829 8.26803V11.9969H12V7.79245C12 5.72719 11.5553 4.14003 9.14144 4.14003C7.9825 4.14003 7.20565 4.77603 6.88797 5.37792H6.85576V4.3295H4.57071ZM0.691549 4.3295H3.07576V11.9962H0.691549V4.3295Z" fill="#5E5873"/>
</g>
</svg>
