<svg width="25" height="19" viewBox="0 0 25 19" fill="none" xmlns="http://www.w3.org/2000/svg">
<g id="Mastercard">
<path id="path360" d="M4.64041 16.7407C4.5714 16.6717 4.49001 16.6181 4.39534 16.5797C4.30068 16.5416 4.19761 16.5226 4.08525 16.5226C4.02554 16.5226 3.96361 16.5275 3.89991 16.5381C3.83577 16.5478 3.77295 16.5659 3.71102 16.592C3.64998 16.6181 3.59115 16.654 3.53585 16.6995C3.48012 16.7455 3.4319 16.803 3.3912 16.8729C3.32485 16.7637 3.23549 16.6779 3.12225 16.6155C3.00901 16.5536 2.88028 16.5226 2.73475 16.5226C2.68565 16.5226 2.63522 16.527 2.58302 16.5359C2.53038 16.5447 2.47863 16.5602 2.42732 16.5819C2.37556 16.6035 2.32646 16.6336 2.27957 16.6708C2.23268 16.7084 2.18977 16.7561 2.15173 16.8137V16.5739H1.73901V18.5366H2.15571V17.4489C2.15571 17.3653 2.16898 17.2914 2.19508 17.2264C2.22162 17.1613 2.25701 17.1074 2.30124 17.0631C2.34548 17.0198 2.39768 16.9866 2.45695 16.9641C2.51667 16.9415 2.57993 16.93 2.64761 16.93C2.78739 16.93 2.89621 16.9747 2.97362 17.0631C3.05103 17.1521 3.08952 17.279 3.08952 17.4445V18.5366H3.50621V17.4489C3.50621 17.3653 3.51904 17.2914 3.54558 17.2264C3.57213 17.1613 3.60751 17.1074 3.65175 17.0631C3.69598 17.0198 3.74774 16.9866 3.80746 16.9641C3.86673 16.9415 3.93043 16.93 3.99767 16.93C4.13789 16.93 4.24671 16.9747 4.32413 17.0631C4.40109 17.1521 4.44002 17.279 4.44002 17.4445V18.5366H4.85672V17.3029C4.85672 17.1883 4.8377 17.083 4.8001 16.9875C4.76206 16.892 4.70897 16.8097 4.64041 16.7407Z" fill="#231F20"/>
<path id="path364" d="M6.82014 17.8052C6.79138 17.8817 6.75113 17.948 6.69937 18.0038C6.64718 18.06 6.58525 18.1042 6.5127 18.136C6.4406 18.1683 6.35965 18.1843 6.27073 18.1843C6.17784 18.1843 6.09512 18.1675 6.02213 18.1343C5.9487 18.1007 5.88721 18.0555 5.83634 17.9989C5.78591 17.9423 5.74699 17.8755 5.72 17.799C5.69258 17.7224 5.67886 17.6411 5.67886 17.5552C5.67886 17.469 5.69258 17.388 5.72 17.3115C5.74699 17.235 5.78591 17.1686 5.83634 17.1116C5.88721 17.0549 5.9487 17.0098 6.02213 16.9762C6.09512 16.943 6.17784 16.9262 6.27073 16.9262C6.35965 16.9262 6.4406 16.9421 6.5127 16.9744C6.58525 17.0063 6.64718 17.0505 6.69937 17.1063C6.75113 17.1624 6.79138 17.2288 6.82014 17.3053C6.84889 17.3818 6.86304 17.465 6.86304 17.5552C6.86304 17.6455 6.84889 17.7286 6.82014 17.8052ZM6.8365 16.8112C6.76794 16.7241 6.68345 16.6537 6.58215 16.6015C6.48129 16.5489 6.36053 16.5228 6.21986 16.5228C6.08185 16.5228 5.95357 16.548 5.83457 16.5993C5.71558 16.6506 5.61207 16.7218 5.52316 16.8134C5.43424 16.905 5.36435 17.0138 5.31392 17.1403C5.2635 17.2668 5.23828 17.4048 5.23828 17.5552C5.23828 17.7056 5.2635 17.8437 5.31392 17.9702C5.36435 18.0967 5.43424 18.2055 5.52316 18.2971C5.61207 18.3886 5.71558 18.4599 5.83457 18.5112C5.95357 18.562 6.08185 18.5881 6.21986 18.5881C6.36053 18.5881 6.48129 18.562 6.58215 18.5103C6.68345 18.4581 6.76794 18.3886 6.8365 18.301V18.5368H7.2647V16.5737H6.8365V16.8112Z" fill="#231F20"/>
<path id="path368" d="M9.23329 17.5522C9.11341 17.4584 8.94576 17.396 8.73122 17.3646L8.52862 17.3336C8.4835 17.327 8.44104 17.319 8.40123 17.3102C8.36186 17.3013 8.3278 17.2894 8.29904 17.2744C8.27029 17.2593 8.24729 17.2403 8.23048 17.2173C8.21323 17.1939 8.20482 17.1651 8.20482 17.131C8.20482 17.0616 8.23711 17.005 8.30214 16.9621C8.36716 16.9187 8.45829 16.8975 8.57551 16.8975C8.637 16.8975 8.6976 16.9028 8.75688 16.9138C8.8166 16.9249 8.87277 16.9382 8.92586 16.9545C8.97938 16.9713 9.0276 16.9895 9.07139 17.0089C9.11518 17.0289 9.1519 17.0474 9.18198 17.0656L9.36644 16.7316C9.26381 16.6661 9.14438 16.6148 9.00769 16.5785C8.87145 16.5427 8.72591 16.5246 8.57153 16.5246C8.4459 16.5246 8.3331 16.5392 8.23357 16.5684C8.1336 16.598 8.04867 16.6396 7.97834 16.6936C7.908 16.7475 7.85404 16.8134 7.81644 16.8913C7.77884 16.9691 7.75981 17.0563 7.75981 17.1536C7.75981 17.312 7.81644 17.4402 7.92924 17.5376C8.04204 17.6353 8.20748 17.6995 8.426 17.7291L8.63081 17.7561C8.74847 17.7725 8.83429 17.7985 8.88914 17.8348C8.94355 17.8711 8.97098 17.9171 8.97098 17.9733C8.97098 18.0472 8.93338 18.1051 8.85818 18.1485C8.78298 18.1914 8.67195 18.213 8.5242 18.213C8.44369 18.213 8.37159 18.2073 8.30833 18.1967C8.24463 18.1856 8.18668 18.1706 8.13404 18.1524C8.0814 18.1339 8.03452 18.1131 7.99249 18.0887C7.95091 18.0648 7.91243 18.0396 7.87704 18.0122L7.67798 18.3338C7.7492 18.3869 7.82351 18.4302 7.90137 18.463C7.97922 18.4957 8.05575 18.5214 8.13095 18.5395C8.20615 18.5581 8.27692 18.5705 8.34416 18.5766C8.41096 18.5828 8.46979 18.5859 8.52022 18.5859C8.66089 18.5859 8.78696 18.57 8.89843 18.5386C9.00946 18.5072 9.10324 18.4634 9.17888 18.4063C9.25497 18.3497 9.31292 18.282 9.35317 18.2037C9.39342 18.125 9.41377 18.0387 9.41377 17.9445C9.41377 17.7764 9.35361 17.6455 9.23329 17.5522Z" fill="#231F20"/>
<path id="path372" d="M12.0452 17.3871C12.0563 17.3159 12.0753 17.2509 12.1027 17.1916C12.1297 17.1319 12.1651 17.081 12.208 17.0376C12.2514 16.9947 12.3027 16.9616 12.362 16.9381C12.4212 16.9151 12.4893 16.9036 12.5659 16.9036C12.7021 16.9036 12.8136 16.9456 12.8999 17.0306C12.9857 17.1151 13.0405 17.234 13.0635 17.3871H12.0452ZM13.2431 16.8081C13.1617 16.7174 13.064 16.647 12.9498 16.5971C12.8362 16.5475 12.7105 16.5223 12.5738 16.5223C12.4292 16.5223 12.2969 16.5475 12.1775 16.5971C12.0581 16.647 11.955 16.7174 11.8692 16.8081C11.7829 16.8992 11.7161 17.008 11.6683 17.135C11.6206 17.2619 11.5967 17.4021 11.5967 17.5552C11.5967 17.7109 11.6215 17.852 11.6701 17.9794C11.7197 18.1064 11.7882 18.2152 11.8771 18.305C11.966 18.3952 12.0722 18.4651 12.1947 18.5138C12.3177 18.5633 12.4531 18.5876 12.6004 18.5876C12.7495 18.5876 12.8914 18.5673 13.0259 18.5262C13.1604 18.4855 13.2878 18.4138 13.4081 18.3112L13.1949 18.006C13.1131 18.0714 13.0224 18.1223 12.9233 18.1586C12.8242 18.1948 12.7256 18.213 12.6269 18.213C12.5575 18.213 12.4907 18.2032 12.4265 18.1842C12.362 18.1652 12.304 18.1351 12.2522 18.0953C12.2005 18.0546 12.1558 18.0033 12.1191 17.94C12.0819 17.8772 12.0567 17.8016 12.0435 17.7127H13.4939C13.4966 17.6883 13.4988 17.6622 13.5001 17.6353C13.5015 17.6078 13.5019 17.5804 13.5019 17.553C13.5019 17.3999 13.4793 17.2601 13.4333 17.1341C13.3878 17.0076 13.3241 16.8992 13.2431 16.8081Z" fill="#231F20"/>
<path id="path376" d="M18.9162 17.8052C18.8875 17.8817 18.8472 17.948 18.7954 18.0038C18.7432 18.06 18.6813 18.1042 18.6088 18.136C18.5367 18.1683 18.4557 18.1843 18.3668 18.1843C18.2739 18.1843 18.1912 18.1675 18.1182 18.1343C18.0448 18.1007 17.9833 18.0555 17.9324 17.9989C17.882 17.9423 17.8431 17.8755 17.8161 17.799C17.7886 17.7224 17.7749 17.6411 17.7749 17.5552C17.7749 17.469 17.7886 17.388 17.8161 17.3115C17.8431 17.235 17.882 17.1686 17.9324 17.1116C17.9833 17.0549 18.0448 17.0098 18.1182 16.9762C18.1912 16.943 18.2739 16.9262 18.3668 16.9262C18.4557 16.9262 18.5367 16.9421 18.6088 16.9744C18.6813 17.0063 18.7432 17.0505 18.7954 17.1063C18.8472 17.1624 18.8875 17.2288 18.9162 17.3053C18.945 17.3818 18.9591 17.465 18.9591 17.5552C18.9591 17.6455 18.945 17.7286 18.9162 17.8052ZM18.9326 16.8112C18.864 16.7241 18.7795 16.6537 18.6782 16.6015C18.5774 16.5489 18.4562 16.5228 18.3159 16.5228C18.1779 16.5228 18.0496 16.548 17.9306 16.5993C17.8116 16.6506 17.7081 16.7218 17.6192 16.8134C17.5303 16.905 17.4604 17.0138 17.41 17.1403C17.3596 17.2668 17.3344 17.4048 17.3344 17.5552C17.3344 17.7056 17.3596 17.8437 17.41 17.9702C17.4604 18.0967 17.5303 18.2055 17.6192 18.2971C17.7081 18.3886 17.8116 18.4599 17.9306 18.5112C18.0496 18.562 18.1779 18.5881 18.3159 18.5881C18.4562 18.5881 18.5774 18.562 18.6782 18.5103C18.7795 18.4581 18.864 18.3886 18.9326 18.301V18.5368H19.3608V16.5737H18.9326V16.8112Z" fill="#231F20"/>
<path id="path380" d="M11.0696 18.1453C11.0006 18.1714 10.9324 18.1842 10.8657 18.1842C10.8219 18.1842 10.7812 18.1776 10.7436 18.1639C10.706 18.1502 10.6732 18.1285 10.6454 18.0993C10.6175 18.0701 10.5954 18.0321 10.579 17.9856C10.5626 17.9392 10.5542 17.883 10.5542 17.8175V16.9629H11.2421V16.5736H10.5542V15.9795H10.1238V16.5736H9.73279V16.9629H10.1238V17.8255C10.1238 18.0865 10.1858 18.2789 10.3092 18.4027C10.433 18.5262 10.606 18.5876 10.8289 18.5876C10.9532 18.5876 11.0647 18.5686 11.1638 18.5306C11.2293 18.5049 11.2899 18.4766 11.3465 18.4443L11.2005 18.086C11.1589 18.1081 11.1156 18.128 11.0696 18.1453Z" fill="#231F20"/>
<path id="path384" d="M14.9359 16.5226C14.816 16.5226 14.7072 16.5443 14.6103 16.5881C14.513 16.6318 14.4316 16.7371 14.3661 16.8313V16.5739H13.9773V18.5366H14.3705V17.4568C14.3705 17.3737 14.382 17.2989 14.4051 17.2334C14.4285 17.168 14.4603 17.1127 14.5015 17.0676C14.5426 17.0224 14.5917 16.9884 14.6492 16.9649C14.7063 16.9419 14.7691 16.93 14.8377 16.93C14.8894 16.93 14.9452 16.9366 15.0058 16.9486C15.0363 16.9552 15.065 16.9627 15.0916 16.972L15.2181 16.562C15.184 16.5513 15.1491 16.5416 15.1133 16.5359C15.0606 16.527 15.0013 16.5226 14.9359 16.5226Z" fill="#231F20"/>
<path id="path388" d="M20.8891 16.5226C20.7688 16.5226 20.66 16.5443 20.5631 16.5881C20.4662 16.6318 20.3848 16.7371 20.3194 16.8313V16.5739H19.9305V18.5366H20.3234V17.4568C20.3234 17.3737 20.3353 17.2989 20.3583 17.2334C20.3817 17.168 20.4136 17.1127 20.4547 17.0676C20.4954 17.0224 20.545 16.9884 20.6025 16.9649C20.6595 16.9419 20.7224 16.93 20.7905 16.93C20.8427 16.93 20.8984 16.9366 20.9586 16.9486C20.9895 16.9552 21.0183 16.9627 21.0448 16.972L21.1713 16.562C21.1373 16.5513 21.1023 16.5416 21.0661 16.5359C21.0139 16.527 20.9546 16.5226 20.8891 16.5226Z" fill="#231F20"/>
<path id="path392" d="M22.8727 17.8052C22.8444 17.8817 22.8037 17.948 22.752 18.0038C22.6998 18.06 22.6379 18.1042 22.5653 18.136C22.4932 18.1683 22.4123 18.1843 22.3238 18.1843C22.2309 18.1843 22.1477 18.1675 22.0747 18.1343C22.0018 18.1007 21.9398 18.0555 21.8894 17.9989C21.839 17.9423 21.8 17.8755 21.7726 17.799C21.7452 17.7224 21.7315 17.6411 21.7315 17.5552C21.7315 17.469 21.7452 17.388 21.7726 17.3115C21.8 17.235 21.839 17.1686 21.8894 17.1116C21.9398 17.0549 22.0018 17.0098 22.0747 16.9762C22.1477 16.943 22.2309 16.9262 22.3238 16.9262C22.4123 16.9262 22.4932 16.9421 22.5653 16.9744C22.6379 17.0063 22.6998 17.0505 22.752 17.1063C22.8037 17.1624 22.8444 17.2288 22.8727 17.3053C22.9015 17.3818 22.9161 17.465 22.9161 17.5552C22.9161 17.6455 22.9015 17.7286 22.8727 17.8052ZM22.8891 15.7761V16.8112C22.821 16.7241 22.7361 16.6537 22.6352 16.6015C22.5339 16.5489 22.4131 16.5228 22.2725 16.5228C22.1345 16.5228 22.0062 16.548 21.8872 16.5993C21.7682 16.6506 21.6647 16.7218 21.5758 16.8134C21.4869 16.905 21.4174 17.0138 21.367 17.1403C21.3161 17.2668 21.2909 17.4048 21.2909 17.5552C21.2909 17.7056 21.3161 17.8437 21.367 17.9702C21.4174 18.0967 21.4869 18.2055 21.5758 18.2971C21.6647 18.3886 21.7682 18.4599 21.8872 18.5112C22.0062 18.562 22.1345 18.5881 22.2725 18.5881C22.4131 18.5881 22.5339 18.562 22.6352 18.5103C22.7361 18.4581 22.821 18.3886 22.8891 18.301V18.5368H23.3173V15.7761H22.8891Z" fill="#231F20"/>
<path id="path396" d="M15.9608 17.1013C16.0156 17.046 16.0802 17.0027 16.1554 16.9722C16.2306 16.9417 16.312 16.9262 16.3991 16.9262C16.4956 16.9262 16.5849 16.9417 16.6676 16.9722C16.7473 17.0018 16.8167 17.0434 16.8751 17.096L17.0817 16.7532C17.0043 16.6913 16.9171 16.6409 16.8202 16.6015C16.6911 16.5484 16.5509 16.5223 16.3991 16.5223C16.2474 16.5223 16.1072 16.5484 15.9785 16.6015C15.8493 16.6537 15.7378 16.7262 15.644 16.8182C15.5507 16.9107 15.4773 17.0195 15.4242 17.1456C15.3707 17.2708 15.3441 17.4074 15.3441 17.5552C15.3441 17.7025 15.3707 17.8392 15.4242 17.9648C15.4773 18.0904 15.5507 18.1993 15.644 18.2917C15.7378 18.3837 15.8493 18.4563 15.9785 18.5089C16.1072 18.5615 16.2474 18.5876 16.3991 18.5876C16.5509 18.5876 16.6911 18.5615 16.8202 18.5089C16.9171 18.4695 17.0043 18.4191 17.0817 18.3572L16.8751 18.0139C16.8167 18.067 16.7473 18.1081 16.6676 18.1382C16.5849 18.1687 16.4956 18.1842 16.3991 18.1842C16.312 18.1842 16.2306 18.1687 16.1554 18.1382C16.0802 18.1073 16.0156 18.0643 15.9608 18.009C15.9059 17.9538 15.863 17.8874 15.8316 17.8104C15.8002 17.733 15.7847 17.6481 15.7847 17.5552C15.7847 17.4623 15.8002 17.3774 15.8316 17.3C15.863 17.223 15.9059 17.1566 15.9608 17.1013Z" fill="#231F20"/>
<path id="path400" d="M24.1929 18.4038V18.4365H24.2305C24.238 18.4365 24.2442 18.4352 24.2481 18.433C24.2521 18.4307 24.2543 18.4263 24.2543 18.4206C24.2543 18.4148 24.2521 18.4104 24.2481 18.4077C24.2442 18.4051 24.238 18.4038 24.2305 18.4038H24.1929ZM24.2313 18.3604C24.2557 18.3604 24.2742 18.3662 24.2866 18.3768C24.2995 18.3878 24.3057 18.4024 24.3057 18.4206C24.3057 18.4347 24.3012 18.4467 24.2919 18.456C24.2831 18.4652 24.2698 18.4714 24.2526 18.4741L24.3079 18.5382H24.2481L24.1986 18.4763H24.1929V18.5382H24.1429V18.3604H24.2313ZM24.2198 18.5944C24.2393 18.5944 24.2583 18.5904 24.2756 18.5829C24.2933 18.5754 24.3088 18.5648 24.3216 18.5519C24.3344 18.5387 24.3446 18.5236 24.3521 18.5059C24.3592 18.4882 24.3632 18.4692 24.3632 18.4493C24.3632 18.4294 24.3592 18.4108 24.3521 18.3931C24.3446 18.3754 24.3344 18.36 24.3216 18.3471C24.3088 18.3339 24.2933 18.3237 24.2756 18.3162C24.2583 18.3086 24.2393 18.3047 24.2198 18.3047C24.199 18.3047 24.18 18.3086 24.1623 18.3162C24.1446 18.3237 24.1292 18.3339 24.1163 18.3471C24.1031 18.36 24.0929 18.3754 24.0854 18.3931C24.0778 18.4108 24.0743 18.4294 24.0743 18.4493C24.0743 18.4692 24.0778 18.4882 24.0854 18.5059C24.0929 18.5236 24.1031 18.5387 24.1163 18.5519C24.1292 18.5648 24.1446 18.5754 24.1623 18.5829C24.18 18.5904 24.199 18.5944 24.2198 18.5944ZM24.2198 18.2489C24.2481 18.2489 24.2751 18.2547 24.2999 18.2653C24.3247 18.2755 24.3468 18.2901 24.3654 18.3082C24.384 18.3263 24.3985 18.3476 24.4092 18.3715C24.4198 18.3958 24.4251 18.4219 24.4251 18.4493C24.4251 18.4767 24.4198 18.5024 24.4092 18.5267C24.3985 18.5511 24.384 18.5723 24.3654 18.5909C24.3468 18.609 24.3247 18.6236 24.2999 18.6342C24.2751 18.6444 24.2481 18.6501 24.2198 18.6501C24.1906 18.6501 24.1632 18.6444 24.138 18.6342C24.1128 18.6236 24.0911 18.609 24.0725 18.5909C24.054 18.5723 24.0394 18.5511 24.0287 18.5267C24.0181 18.5024 24.0128 18.4767 24.0128 18.4493C24.0128 18.4219 24.0181 18.3958 24.0287 18.3715C24.0394 18.3476 24.054 18.3263 24.0725 18.3082C24.0911 18.2901 24.1128 18.2755 24.138 18.2653C24.1632 18.2547 24.1906 18.2489 24.2198 18.2489Z" fill="#231F20"/>
<path id="path404" d="M9.70582 7.39798C9.70582 5.04644 10.8042 2.95234 12.5148 1.59741C11.2536 0.598131 9.66026 7.05719e-05 7.92623 7.05719e-05C3.84022 7.05719e-05 0.52832 3.31241 0.52832 7.39798C0.52832 11.4836 3.84022 14.7959 7.92623 14.7959C9.66026 14.7959 11.2536 14.1978 12.5148 13.1986C10.8042 11.8436 9.70582 9.74953 9.70582 7.39798Z" fill="#ED1D26"/>
<path id="path408" d="M9.70581 7.39791C9.70581 9.74946 10.8042 11.8436 12.5148 13.1985C14.2253 11.8436 15.3241 9.74946 15.3241 7.39791C15.3241 5.04636 14.2253 2.95226 12.5148 1.59733C10.8042 2.95226 9.70581 5.04636 9.70581 7.39791Z" fill="#F2571A"/>
<path id="path412" d="M24.4637 11.3994V11.2079L24.4014 11.3729H24.3328L24.2709 11.2083V11.3994H24.2058V11.1234H24.2987L24.3673 11.3003L24.4359 11.1234H24.5283V11.3994H24.4637ZM24.0001 11.3994V11.1831H23.9121V11.1234H24.1523V11.1831H24.0647V11.3994H24.0001Z" fill="#F79511"/>
<path id="path416" d="M17.1036 7.05719e-05C15.3696 7.05719e-05 13.7762 0.598574 12.5146 1.59741C14.2257 2.95234 15.324 5.04644 15.324 7.39798C15.324 9.74998 14.2257 11.8436 12.5146 13.1986C13.7762 14.1978 15.3696 14.7959 17.1036 14.7959C21.1892 14.7959 24.5015 11.4836 24.5015 7.39798C24.5015 3.31241 21.1892 7.05719e-05 17.1036 7.05719e-05Z" fill="#F79511"/>
</g>
</svg>
