<svg width="30" height="10" viewBox="0 0 30 10" fill="none" xmlns="http://www.w3.org/2000/svg">
<g id="PIX">
<path id="path12" d="M11.9695 9.3374V3.60246C11.9695 2.54728 12.8514 1.69192 13.9393 1.69192L15.685 1.6944C16.7698 1.6965 17.648 2.55005 17.648 3.60223V4.82293C17.648 5.87811 16.7661 6.73356 15.6782 6.73356H13.2114" stroke="#939598" stroke-width="0.3" stroke-miterlimit="22.9256" stroke-linecap="round" stroke-linejoin="round"/>
<path id="path14" d="M18.136 1.69114H18.8933C19.3398 1.69114 19.7017 2.04221 19.7017 2.47523V6.75928" stroke="#939598" stroke-width="0.3" stroke-miterlimit="22.9256" stroke-linecap="round" stroke-linejoin="round"/>
<path id="path16" d="M19.5392 1.02733L19.1958 0.694227C19.1105 0.611608 19.1105 0.477569 19.1958 0.39495L19.539 0.062068C19.6243 -0.0207014 19.7627 -0.0207014 19.8479 0.062068L20.1912 0.39495C20.2764 0.477569 20.2764 0.611608 20.1912 0.694227L19.8478 1.02733C19.7626 1.11003 19.6244 1.11003 19.5392 1.02733Z" fill="#32BCAD"/>
<path id="path18" d="M21.1544 1.68732H21.9055C22.2917 1.68732 22.6623 1.83617 22.9354 2.10116L24.692 3.80488C24.9195 4.02565 25.2885 4.02565 25.516 3.80488L27.2662 2.10733C27.5393 1.84241 27.9099 1.69356 28.2962 1.69356L28.9068 1.69363" stroke="#939598" stroke-width="0.3" stroke-miterlimit="22.9256" stroke-linecap="round" stroke-linejoin="round"/>
<path id="path20" d="M21.1544 6.72168H21.9055C22.2917 6.72168 22.6623 6.57285 22.9354 6.30786L24.692 4.60408C24.9195 4.38337 25.2885 4.38337 25.516 4.60408L27.2662 6.3016C27.5393 6.5666 27.9099 6.71542 28.2962 6.71542H28.9068" stroke="#939598" stroke-width="0.3" stroke-miterlimit="22.9256" stroke-linecap="round" stroke-linejoin="round"/>
<path id="path22" d="M7.49214 7.81016C7.11518 7.81016 6.7607 7.66782 6.49422 7.4094L5.05326 6.0118C4.95211 5.91342 4.77576 5.91371 4.67463 6.0118L3.22841 7.41455C2.96187 7.6729 2.60739 7.81524 2.23045 7.81524H1.94653L3.77147 9.58541C4.34145 10.1382 5.26556 10.1382 5.8355 9.58541L7.66574 7.81016H7.49214Z" fill="#32BCAD"/>
<path id="path24" d="M2.23043 2.86643C2.60737 2.86643 2.96184 3.00883 3.22836 3.26722L4.67458 4.67017C4.77872 4.77122 4.94879 4.77163 5.05324 4.67005L6.49416 3.2723C6.76068 3.01388 7.11518 2.87154 7.49211 2.87154H7.66566L5.83548 1.09635C5.2655 0.543504 4.34143 0.543504 3.77145 1.09635L1.94653 2.86643H2.23043Z" fill="#32BCAD"/>
<path id="path26" d="M9.17953 4.34002L8.07352 3.26726C8.04918 3.27672 8.02283 3.28265 7.995 3.28265H7.49215C7.23217 3.28265 6.97768 3.38487 6.79399 3.56318L5.35304 4.96085C5.21826 5.09162 5.04108 5.1571 4.86402 5.1571C4.68688 5.1571 4.50982 5.09162 4.37501 4.96097L2.92863 3.5581C2.74492 3.37979 2.49048 3.27754 2.23047 3.27754H1.61218C1.58583 3.27754 1.56116 3.27149 1.53788 3.26301L0.427481 4.34002C-0.142494 4.89281 -0.142494 5.78914 0.427481 6.34198L1.53782 7.41895C1.56107 7.41046 1.58581 7.40441 1.61215 7.40441H2.23047C2.49048 7.40441 2.74492 7.30219 2.92863 7.12388L4.37485 5.72113C4.63626 5.46779 5.09191 5.46767 5.35304 5.72125L6.79402 7.11874C6.97768 7.29708 7.23217 7.39933 7.49218 7.39933H7.995C8.02283 7.39933 8.04918 7.4052 8.0736 7.41466L9.17953 6.34198C9.74952 5.78914 9.74952 4.89281 9.17953 4.34002Z" fill="#32BCAD"/>
<path id="path28" d="M13.4708 8.85001C13.3892 8.85001 13.2941 8.86904 13.2002 8.89003V9.23958C13.2653 9.26263 13.3396 9.27367 13.4109 9.27367C13.5916 9.27367 13.6773 9.21458 13.6773 9.06027C13.6773 8.91506 13.607 8.85001 13.4708 8.85001ZM13.1393 9.49902V8.8079H13.1888L13.1941 8.838C13.2776 8.81894 13.3933 8.79392 13.4759 8.79392C13.5431 8.79392 13.607 8.80382 13.6607 8.84593C13.7227 8.89505 13.7424 8.97414 13.7424 9.06024C13.7424 9.15045 13.7114 9.23561 13.6267 9.28263C13.5678 9.31467 13.4883 9.32767 13.4171 9.32767C13.3437 9.32767 13.2735 9.3166 13.2002 9.29564V9.49902H13.1393Z" fill="#939598"/>
<path id="path30" d="M14.196 8.84786C14.0153 8.84786 13.9347 8.90301 13.9347 9.05724C13.9347 9.20647 14.0143 9.27364 14.196 9.27364C14.3757 9.27364 14.4562 9.21949 14.4562 9.06522C14.4562 8.91601 14.3768 8.84786 14.196 8.84786ZM14.4283 9.27364C14.3685 9.3156 14.2879 9.32764 14.196 9.32764C14.1021 9.32764 14.0215 9.31457 13.9626 9.27361C13.8965 9.22856 13.8696 9.15435 13.8696 9.06126C13.8696 8.96908 13.8965 8.89405 13.9626 8.84786C14.0215 8.80683 14.1021 8.79385 14.196 8.79385C14.2889 8.79385 14.3685 8.80683 14.4283 8.84786C14.4955 8.89405 14.5212 8.96908 14.5212 9.0602C14.5212 9.15338 14.4944 9.22856 14.4283 9.27361V9.27364Z" fill="#939598"/>
<path id="path32" d="M15.2836 9.31372L15.0822 8.89414H15.0781L14.8798 9.31372H14.8251L14.6104 8.80793H14.6774L14.856 9.23252H14.8602L15.0543 8.80793H15.1101L15.3094 9.23252H15.3136L15.4881 8.80793H15.5531L15.3383 9.31372H15.2836Z" fill="#939598"/>
<path id="path34" d="M15.9427 8.84683C15.7754 8.84683 15.7186 8.91892 15.7082 9.02314H16.1771C16.172 8.908 16.111 8.84683 15.9427 8.84683ZM15.9407 9.32764C15.8405 9.32764 15.7754 9.3136 15.7237 9.27143C15.6628 9.22037 15.6422 9.14633 15.6422 9.06123C15.6422 8.98006 15.6701 8.89399 15.7393 8.84486C15.7971 8.80581 15.8684 8.79379 15.9427 8.79379C16.0098 8.79379 16.0873 8.80075 16.1513 8.8429C16.2267 8.89188 16.2412 8.9781 16.2412 9.07618H15.7062C15.7083 9.18037 15.7434 9.27258 15.9458 9.27258C16.0418 9.27258 16.1317 9.25745 16.2154 9.24348V9.29657C16.1285 9.31163 16.0325 9.32764 15.9407 9.32764Z" fill="#939598"/>
<path id="path36" d="M16.4159 9.31372V8.80793H16.4655L16.4707 8.83803C16.5811 8.81095 16.6328 8.79394 16.7298 8.79394H16.7372V8.85003H16.7227C16.641 8.85003 16.5915 8.86096 16.4769 8.89006V9.31372H16.4159Z" fill="#939598"/>
<path id="path38" d="M17.091 8.84683C16.9237 8.84683 16.8669 8.91892 16.8566 9.02314H17.3254C17.3203 8.908 17.2593 8.84683 17.091 8.84683ZM17.0889 9.32764C16.9887 9.32764 16.9237 9.3136 16.8721 9.27143C16.8111 9.22037 16.7905 9.14633 16.7905 9.06123C16.7905 8.98006 16.8184 8.89399 16.8876 8.84486C16.9454 8.80581 17.0166 8.79379 17.091 8.79379C17.1581 8.79379 17.2356 8.80075 17.2995 8.8429C17.3749 8.89188 17.3894 8.9781 17.3894 9.07618H16.8545C16.8566 9.18037 16.8918 9.27258 17.094 9.27258C17.1901 9.27258 17.2799 9.25745 17.3636 9.24348V9.29657C17.2769 9.31163 17.1808 9.32764 17.0889 9.32764Z" fill="#939598"/>
<path id="path40" d="M18.0568 8.88201C17.9918 8.8589 17.9175 8.84786 17.8463 8.84786C17.6655 8.84786 17.5798 8.90703 17.5798 9.06126C17.5798 9.20741 17.65 9.27149 17.7864 9.27149C17.8679 9.27149 17.9629 9.25246 18.0568 9.23246V8.88201ZM18.0682 9.31366L18.0631 9.28353C17.9794 9.30259 17.8638 9.32764 17.7812 9.32764C17.7141 9.32764 17.65 9.31865 17.5963 9.27554C17.5344 9.22638 17.5148 9.14736 17.5148 9.06126C17.5148 8.97113 17.5458 8.88591 17.6304 8.83984C17.6893 8.80683 17.7688 8.79385 17.8411 8.79385C17.9134 8.79385 17.9835 8.80589 18.0568 8.82586V8.59449H18.1178V9.31366H18.0682Z" fill="#939598"/>
<path id="path42" d="M19.0111 8.84997C18.9295 8.84997 18.8345 8.869 18.7406 8.88999V9.23851C18.8067 9.26259 18.8799 9.27364 18.9512 9.27364C19.1319 9.27364 19.2176 9.21455 19.2176 9.06023C19.2176 8.91502 19.1474 8.84997 19.0111 8.84997ZM19.167 9.28259C19.1081 9.31463 19.0286 9.32764 18.9573 9.32764C18.8799 9.32764 18.8025 9.31463 18.724 9.28955L18.7209 9.31366H18.6796V8.59455H18.7406V8.83584C18.8242 8.81793 18.9367 8.79388 19.0162 8.79388C19.0834 8.79388 19.1474 8.80378 19.201 8.84589C19.263 8.89502 19.2827 8.9741 19.2827 9.0602C19.2827 9.15041 19.2516 9.23557 19.167 9.28259Z" fill="#939598"/>
<path id="path44" d="M19.3635 9.50792V9.45292C19.3935 9.45588 19.4214 9.45794 19.441 9.45794C19.5164 9.45794 19.5618 9.43682 19.6042 9.35366L19.6238 9.31363L19.3512 8.80787H19.4214L19.6548 9.24451H19.6589L19.881 8.80784L19.9501 8.80787L19.6569 9.37577C19.6032 9.47893 19.5453 9.51294 19.4389 9.51294C19.4152 9.51294 19.3894 9.51097 19.3635 9.50792Z" fill="#939598"/>
<path id="path46" d="M20.7898 9.02526H20.5874V9.20257H20.7908C20.9302 9.20257 20.9828 9.18745 20.9828 9.11344C20.9828 9.03418 20.9106 9.02526 20.7898 9.02526ZM20.7526 8.73774H20.5874V8.91807H20.7537C20.891 8.91807 20.9457 8.90207 20.9457 8.82695C20.9457 8.74688 20.8765 8.73777 20.7526 8.73777L20.7526 8.73774ZM21.0665 9.26568C20.9921 9.31175 20.9023 9.31372 20.7381 9.31372H20.4294V8.62765H20.7309C20.8724 8.62765 20.9591 8.62964 21.0314 8.67175C21.0831 8.70182 21.1037 8.74787 21.1037 8.80793C21.1037 8.88001 21.0727 8.92809 20.9921 8.96019V8.96406C21.0831 8.98424 21.1419 9.02931 21.1419 9.12646C21.1419 9.1925 21.1172 9.23564 21.0665 9.26568Z" fill="#939598"/>
<path id="path48" d="M21.7596 9.10132C21.6987 9.09626 21.6367 9.09329 21.5716 9.09329C21.4654 9.09329 21.4281 9.11432 21.4281 9.16137C21.4281 9.20544 21.4591 9.22949 21.5406 9.22949C21.6088 9.22949 21.6904 9.21452 21.7596 9.1994V9.10132ZM21.7906 9.31366L21.7865 9.28353C21.6976 9.30467 21.5944 9.32764 21.5035 9.32764C21.4478 9.32764 21.3879 9.32062 21.3455 9.29052C21.3063 9.2635 21.2877 9.21943 21.2877 9.16833C21.2877 9.11124 21.3135 9.05823 21.3755 9.03119C21.4303 9.00614 21.5035 9.00414 21.5707 9.00414C21.6254 9.00414 21.6987 9.00714 21.7597 9.01116V9.00208C21.7597 8.92303 21.7059 8.89699 21.5593 8.89699C21.5026 8.89699 21.4333 8.8999 21.3672 8.90594V8.80378C21.4406 8.79785 21.5231 8.79382 21.5913 8.79382C21.6822 8.79382 21.7762 8.80084 21.834 8.84084C21.8938 8.88201 21.9052 8.9391 21.9052 9.01413V9.31363L21.7906 9.31366Z" fill="#939598"/>
<path id="path50" d="M22.5861 9.31372V9.03419C22.5861 8.94212 22.5376 8.90912 22.4508 8.90912C22.3868 8.90912 22.3063 8.92507 22.2381 8.94115V9.31372H22.0925V8.80793H22.2113L22.2164 8.83991C22.3083 8.81697 22.4105 8.79394 22.4953 8.79394C22.5592 8.79394 22.6243 8.80287 22.6739 8.84595C22.7151 8.88207 22.7307 8.93205 22.7307 9.00423V9.31372H22.5861Z" fill="#939598"/>
<path id="path52" d="M23.142 9.32764C23.0749 9.32764 23.0015 9.31865 22.9479 9.27455C22.8838 9.22445 22.8652 9.14539 22.8652 9.06014C22.8652 8.98006 22.8921 8.8929 22.9716 8.8439C23.0366 8.80275 23.1172 8.79379 23.2008 8.79379C23.2607 8.79379 23.3196 8.79782 23.3846 8.80375V8.91199C23.3319 8.90703 23.269 8.90298 23.2184 8.90298C23.08 8.90298 23.0149 8.94506 23.0149 9.06126C23.0149 9.17044 23.0635 9.21746 23.177 9.21746C23.2432 9.21746 23.3206 9.20544 23.396 9.19147V9.2956C23.3144 9.31166 23.2256 9.32764 23.142 9.32764Z" fill="#939598"/>
<path id="path54" d="M23.826 8.8999C23.6876 8.8999 23.6267 8.94206 23.6267 9.05721C23.6267 9.17238 23.6866 9.22151 23.826 9.22151C23.9634 9.22151 24.0232 9.18036 24.0232 9.06513C24.0232 8.95002 23.9644 8.8999 23.826 8.8999ZM24.0759 9.27458C24.0119 9.31657 23.9282 9.32764 23.826 9.32764C23.7217 9.32764 23.6381 9.31554 23.5751 9.27455C23.5027 9.22847 23.4769 9.15235 23.4769 9.06123C23.4769 8.97002 23.5027 8.8929 23.5751 8.84683C23.6381 8.8058 23.7217 8.79379 23.826 8.79379C23.9293 8.79379 24.0119 8.8058 24.0759 8.84683C24.1481 8.8929 24.173 8.97002 24.173 9.06014C24.173 9.15135 24.1471 9.2285 24.0759 9.27455V9.27458Z" fill="#939598"/>
<path id="path56" d="M25.0136 9.32764C24.9259 9.32764 24.8309 9.31366 24.7595 9.25651C24.6749 9.18836 24.6492 9.08325 24.6492 8.97005C24.6492 8.86895 24.6822 8.74878 24.7926 8.67859C24.8783 8.62459 24.9847 8.61355 25.0921 8.61355C25.1706 8.61355 25.2511 8.61854 25.339 8.62558V8.74878C25.2636 8.74272 25.1706 8.73768 25.0983 8.73768C24.897 8.73768 24.8112 8.81186 24.8112 8.97005C24.8112 9.13139 24.8908 9.20348 25.0395 9.20348C25.1365 9.20348 25.245 9.18442 25.3544 9.16237V9.28456C25.2449 9.30564 25.1303 9.32764 25.0136 9.32764Z" fill="#939598"/>
<path id="path58" d="M25.7822 8.88392C25.6614 8.88392 25.6149 8.92609 25.6056 9.0032H25.9567C25.9525 8.92104 25.9029 8.88392 25.7822 8.88392ZM25.7605 9.32764C25.6748 9.32764 25.5973 9.31765 25.5395 9.27149C25.4776 9.22151 25.4558 9.14636 25.4558 9.06014C25.4558 8.98306 25.4817 8.89699 25.554 8.84683C25.618 8.80275 25.6996 8.79379 25.7822 8.79379C25.8565 8.79379 25.9443 8.80178 26.0083 8.84486C26.092 8.90198 26.0992 8.99014 26.1002 9.09426L25.6045 9.09429C25.6076 9.17144 25.65 9.22151 25.7966 9.22151C25.8875 9.22151 25.9887 9.2085 26.0744 9.19543V9.29457C25.9743 9.31066 25.8647 9.32764 25.7605 9.32764Z" fill="#939598"/>
<path id="path60" d="M26.748 9.31372V9.03419C26.748 8.94212 26.6995 8.90912 26.6127 8.90912C26.5488 8.90912 26.4682 8.92507 26.4 8.94115V9.31372H26.2544V8.80793H26.3732L26.3783 8.83991C26.4702 8.81697 26.5724 8.79394 26.6572 8.79394C26.7211 8.79394 26.7862 8.80287 26.8358 8.84595C26.8771 8.88207 26.8926 8.93205 26.8926 9.00423V9.31372H26.748Z" fill="#939598"/>
<path id="path62" d="M27.3071 9.32764C27.2369 9.32764 27.1728 9.30855 27.1378 9.25551C27.1119 9.21943 27.0995 9.17044 27.0995 9.10229V8.91293H26.9941V8.80783H27.0995L27.115 8.65457H27.2441V8.80783H27.4496V8.91293H27.2441V9.0753C27.2441 9.11432 27.2472 9.14736 27.2585 9.17144C27.274 9.20544 27.3081 9.21846 27.3535 9.21846C27.3876 9.21846 27.4289 9.2134 27.4578 9.2085V9.30958C27.4103 9.31865 27.3556 9.32764 27.3071 9.32764Z" fill="#939598"/>
<path id="path64" d="M27.5916 9.31372V8.80793H27.7104L27.7156 8.83991C27.8116 8.81392 27.8827 8.79394 27.9737 8.79394C27.9778 8.79394 27.984 8.79394 27.9923 8.79485V8.91508C27.9758 8.91411 27.9561 8.91411 27.9417 8.91411C27.8704 8.91411 27.8167 8.9221 27.7372 8.94018V9.31372H27.5916Z" fill="#939598"/>
<path id="path66" d="M28.5215 9.10132C28.4606 9.09626 28.3987 9.09329 28.3336 9.09329C28.2272 9.09329 28.19 9.11432 28.19 9.16137C28.19 9.20544 28.221 9.22949 28.3026 9.22949C28.3708 9.22949 28.4524 9.21452 28.5215 9.1994V9.10132ZM28.5525 9.31366L28.5484 9.28353C28.4596 9.30467 28.3563 9.32764 28.2655 9.32764C28.2097 9.32764 28.1497 9.32062 28.1074 9.29052C28.0683 9.2635 28.0497 9.21943 28.0497 9.16833C28.0497 9.11124 28.0754 9.05823 28.1374 9.03119C28.1921 9.00614 28.2655 9.00414 28.3326 9.00414C28.3873 9.00414 28.4606 9.00714 28.5216 9.01116V9.00208C28.5216 8.92303 28.4679 8.89699 28.3213 8.89699C28.2645 8.89699 28.1952 8.8999 28.1291 8.90594V8.80378C28.2024 8.79785 28.2851 8.79382 28.3533 8.79382C28.4441 8.79382 28.5381 8.80084 28.5959 8.84084C28.6558 8.88201 28.6672 8.9391 28.6672 9.01413V9.31363L28.5525 9.31366Z" fill="#939598"/>
<path id="path68" d="M28.8545 8.59461H29V9.31372H28.8545V8.59461Z" fill="#939598"/>
</g>
</svg>
