<svg width="31" height="10" viewBox="0 0 31 10" fill="none" xmlns="http://www.w3.org/2000/svg">
<path d="M10.7549 9.22534L12.3001 0.157519H14.772L13.2256 9.22534H10.7549Z" fill="#1B54A2"/>
<path d="M22.1898 0.380894C21.7002 0.197185 20.9329 0.000107765 19.9746 0.000107765C17.5322 0.000107765 15.812 1.22993 15.7975 2.99254C15.7837 4.29569 17.0254 5.02251 17.963 5.45638C18.9251 5.90057 19.2486 6.18396 19.244 6.58117C19.2379 7.18883 18.4756 7.46649 17.7652 7.46649C16.776 7.46649 16.2504 7.32899 15.4388 6.9906L15.1203 6.84623L14.7735 8.8762C15.3506 9.12942 16.4181 9.34865 17.5268 9.36011C20.1247 9.36011 21.8114 8.14442 21.8305 6.26188C21.8396 5.23066 21.1812 4.44541 19.7554 3.79842C18.8915 3.37906 18.3625 3.0991 18.3679 2.67401C18.3679 2.29743 18.8159 1.89411 19.7833 1.89411C20.5915 1.88188 21.177 2.05796 21.633 2.24166L21.8549 2.34631L22.1898 0.380894Z" fill="#1B54A2"/>
<path d="M25.4799 6.01088C25.6846 5.4884 26.4649 3.476 26.4649 3.476C26.4504 3.50006 26.6677 2.95122 26.7926 2.61054L26.9595 3.39236C26.9595 3.39236 27.4327 5.55714 27.5316 6.01088H25.4799ZM28.5277 0.166178H26.6177C26.0265 0.166178 25.5834 0.327736 25.3237 0.918202L21.653 9.22827H24.2482C24.2482 9.22827 24.6729 8.11112 24.7688 7.86554C25.0521 7.86554 27.5737 7.86974 27.9342 7.86974C28.0079 8.18713 28.2348 9.22827 28.2348 9.22827H30.5283L28.5277 0.166178Z" fill="#1B54A2"/>
<path d="M8.68185 0.164221L6.26193 6.34769L6.00413 5.09114C5.55383 3.64247 4.15023 2.07312 2.58087 1.2871L4.79378 9.21753L7.40887 9.21447L11.3 0.164221H8.68185Z" fill="#1B54A2"/>
<path d="M4.01716 0.158661H0.0317L0 0.347335C3.1009 1.09783 5.15264 2.91162 6.00435 5.09131L5.13775 0.924052C4.98803 0.350008 4.55415 0.178521 4.01716 0.158661Z" fill="#F89C0E"/>
</svg>
