<svg width="32" height="32" viewBox="0 0 32 32" fill="none" xmlns="http://www.w3.org/2000/svg">
<g id="bx:bxs-quote-right">
<path id="Vector" d="M27.0787 23.6107C29.5947 20.88 29.3413 17.3734 29.3333 17.3334V6.66671C29.3333 6.31309 29.1929 5.97395 28.9428 5.7239C28.6928 5.47385 28.3536 5.33337 28 5.33337H20C18.5293 5.33337 17.3333 6.52937 17.3333 8.00004V17.3334C17.3333 17.687 17.4738 18.0261 17.7239 18.2762C17.9739 18.5262 18.3131 18.6667 18.6667 18.6667H22.7707C22.7425 19.3259 22.5456 19.9668 22.1987 20.528C21.5213 21.596 20.2453 22.3254 18.404 22.6934L17.3333 22.9067V26.6667H18.6667C22.3773 26.6667 25.208 25.6387 27.0787 23.6107ZM12.4027 23.6107C14.92 20.88 14.6653 17.3734 14.6573 17.3334V6.66671C14.6573 6.31309 14.5169 5.97395 14.2668 5.7239C14.0168 5.47385 13.6776 5.33337 13.324 5.33337H5.32402C3.85335 5.33337 2.65735 6.52937 2.65735 8.00004V17.3334C2.65735 17.687 2.79782 18.0261 3.04787 18.2762C3.29792 18.5262 3.63706 18.6667 3.99068 18.6667H8.09468C8.06651 19.3259 7.86956 19.9668 7.52268 20.528C6.84535 21.596 5.56935 22.3254 3.72802 22.6934L2.65735 22.9067V26.6667H3.99068C7.70135 26.6667 10.532 25.6387 12.4027 23.6107Z" fill="url(#paint0_linear_1_9660)"/>
</g>
<defs>
<linearGradient id="paint0_linear_1_9660" x1="2.65735" y1="5.33337" x2="31.1566" y2="36.709" gradientUnits="userSpaceOnUse">
<stop stop-color="#43CBFF"/>
<stop offset="1" stop-color="#9708CC"/>
</linearGradient>
</defs>
</svg>
