<svg width="25" height="25" viewBox="0 0 25 25" fill="none" xmlns="http://www.w3.org/2000/svg">
<mask id="mask0_1_10400" style="mask-type:luminance" maskUnits="userSpaceOnUse" x="2" y="5" width="21" height="15">
<path fill-rule="evenodd" clip-rule="evenodd" d="M3.12516 7.29165H21.8752C22.5002 7.29165 22.9168 6.87498 22.9168 6.24998C22.9168 5.62498 22.5002 5.20831 21.8752 5.20831H3.12516C2.50016 5.20831 2.0835 5.62498 2.0835 6.24998C2.0835 6.87498 2.50016 7.29165 3.12516 7.29165ZM22.9168 12.5C22.9168 13.125 22.5002 13.5416 21.8752 13.5416H3.12516C2.50016 13.5416 2.0835 13.125 2.0835 12.5C2.0835 11.875 2.50016 11.4583 3.12516 11.4583H21.8752C22.5002 11.4583 22.9168 11.875 22.9168 12.5ZM3.12516 17.7083H21.8752C22.5002 17.7083 22.9168 18.125 22.9168 18.75C22.9168 19.375 22.5002 19.7916 21.8752 19.7916H3.12516C2.50016 19.7916 2.0835 19.375 2.0835 18.75C2.0835 18.125 2.50016 17.7083 3.12516 17.7083Z" fill="white"/>
</mask>
<g mask="url(#mask0_1_10400)">
<rect width="25" height="25" fill="white"/>
</g>
</svg>
