<svg width="172" height="40" viewBox="0 0 172 40" fill="none" xmlns="http://www.w3.org/2000/svg">
<g id="Logo">
<g id="mpays">
<path d="M33.0389 17.0233C33.0254 13.8541 32.2297 11.285 30.6518 9.31605C28.8447 7.03693 26.397 6.22103 23.3088 6.86836C22.2299 7.09762 20.6453 8.23044 18.555 10.2668H18.4134C16.6063 7.27293 13.9428 6.14012 10.423 6.86836C9.64079 7.03019 8.91255 7.40779 8.23825 8.00117C8.08991 8.12255 7.83367 8.36529 7.46955 8.72941C7.19984 8.99913 6.98406 9.18794 6.82223 9.29582V9.27559C6.82223 8.72267 6.62668 8.25066 6.23559 7.85957C5.8445 7.45499 5.37249 7.25271 4.81957 7.25271H2.47302C1.90661 7.25271 1.42786 7.45499 1.03677 7.85957C0.64568 8.25066 0.450134 8.72267 0.450134 9.27559V24.4068C0.450134 25.2025 0.733339 25.8902 1.29975 26.4701C1.87964 27.0365 2.56742 27.3197 3.36309 27.3197H3.80813C4.61728 27.3197 5.30506 27.0365 5.87147 26.4701C6.45137 25.8902 6.74131 25.2025 6.74131 24.4068V15.5263C6.74131 14.5688 7.06498 13.7327 7.7123 13.0179C8.37311 12.2897 9.17552 11.9121 10.1195 11.8851C11.104 11.8581 11.9536 12.1886 12.6684 12.8763C13.3696 13.5641 13.7203 14.4002 13.7203 15.3847V24.4068C13.7203 25.2025 14.0102 25.8902 14.5901 26.4701C15.1565 27.0365 15.8443 27.3197 16.6535 27.3197H17.2401C18.0358 27.3197 18.7236 27.0365 19.3034 26.4701C19.8699 25.8902 20.1531 25.2025 20.1531 24.4068V15.5263C20.1531 14.5688 20.4767 13.7327 21.124 13.0179C21.7849 12.2897 22.5873 11.9121 23.5313 11.8851C24.5292 11.8581 25.3789 12.1886 26.0801 12.8763C26.7949 13.5641 27.1523 14.4002 27.1523 15.3847V24.4068C27.1523 25.2025 27.4355 25.8902 28.0019 26.4701C28.5683 27.0365 29.2561 27.3197 30.0652 27.3197H30.1259C30.935 27.3197 31.6228 27.0365 32.1892 26.4701C32.7556 25.8902 33.0389 25.2025 33.0389 24.4068V17.0233Z" fill="white"/>
<path d="M50.2941 17.4076C50.2941 18.4056 50.112 19.3091 49.7479 20.1183C49.3568 20.9679 48.8376 21.5478 48.1903 21.858C46.8417 22.5188 45.4931 22.5862 44.1445 22.0602C42.9712 21.6017 42.2295 20.9544 41.9193 20.1183V15.0611C41.9598 13.3753 42.6678 12.3032 44.0434 11.8447C44.7311 11.6154 45.4189 11.5547 46.1067 11.6626C47.2665 11.6626 48.2577 12.1953 49.0804 13.2607C49.8895 14.3396 50.2941 15.6409 50.2941 17.1649V17.4076ZM46.6327 27.2388C49.3164 27.2388 51.609 26.2409 53.5105 24.245C55.412 22.249 56.3627 19.8351 56.3627 17.003C56.3627 14.1845 55.412 11.7772 53.5105 9.78132C51.609 7.7854 49.3164 6.78744 46.6327 6.78744C44.9604 6.78744 43.3893 7.21899 41.9193 8.08209V8.06186C41.9193 7.71123 41.7912 7.40779 41.535 7.15156C41.2922 6.90882 40.9888 6.78744 40.6247 6.78744H36.8217C36.471 6.78744 36.1676 6.90882 35.9114 7.15156C35.6551 7.40779 35.527 7.71797 35.527 8.08209V32.6197C35.527 33.4828 35.8372 34.2245 36.4575 34.8449C37.0779 35.4652 37.8196 35.7754 38.6827 35.7754H38.7636C39.6267 35.7754 40.3685 35.4652 40.9888 34.8449C41.6092 34.2245 41.9193 33.4828 41.9193 32.6197V25.9442C43.3893 26.8073 44.9604 27.2388 46.6327 27.2388Z" fill="white"/>
<path d="M64.2925 16.6996C64.2925 15.7016 64.4745 14.7981 64.8386 13.9889C65.2297 13.1393 65.7489 12.5594 66.3963 12.2492C67.7449 11.5884 69.0935 11.521 70.442 12.0469C71.6153 12.5055 72.357 13.1528 72.6672 13.9889V19.0461C72.6268 20.7184 71.9188 21.7905 70.5432 22.2625C69.8554 22.4918 69.1676 22.5525 68.4798 22.4446C67.3201 22.4446 66.3288 21.9119 65.5062 20.8465C64.697 19.7676 64.2925 18.4662 64.2925 16.9423V16.6996ZM58.2238 17.1042C58.2238 19.9227 59.1746 22.33 61.0761 24.3259C62.9776 26.3218 65.2702 27.3197 67.9539 27.3197C68.7226 27.3197 69.8217 26.8545 71.2512 25.924C71.6018 25.6947 71.9862 25.607 72.4042 25.661C72.8088 25.7149 73.1595 25.897 73.4561 26.2072C74.1439 26.9489 74.6901 27.3197 75.0947 27.3197H77.7649C78.1155 27.3197 78.419 27.1916 78.6752 26.9354C78.9314 26.6927 79.0595 26.3892 79.0595 26.0251V9.86223C79.0595 9.21491 78.8235 8.65524 78.3515 8.18323C77.893 7.72471 77.3333 7.49545 76.6725 7.49545H75.0138C74.3664 7.49545 73.8135 7.72471 73.355 8.18323C72.8965 8.64176 72.6672 9.19468 72.6672 9.842V9.86223C71.7906 7.86632 70.2195 6.86836 67.9539 6.86836C65.2702 6.86836 62.9776 7.86632 61.0761 9.86223C59.1746 11.8581 58.2238 14.2721 58.2238 17.1042Z" fill="white"/>
<path d="M96.7194 7.41454C96.099 7.41454 95.5326 7.60334 95.0201 7.98095C94.5211 8.34507 94.1773 8.83056 93.9885 9.43742C92.1274 15.5465 90.9946 19.5114 90.59 21.332L86.6454 9.37674C86.4566 8.78336 86.1127 8.31135 85.6137 7.96072C85.1147 7.5966 84.5551 7.41454 83.9347 7.41454H83.429C82.3906 7.41454 81.5882 7.84609 81.0217 8.70919C80.4553 9.58577 80.3879 10.4961 80.8195 11.4401C84.0291 18.5876 85.8767 23.4021 86.3622 25.8835V25.9846C86.3622 28.2638 85.7216 29.7135 84.4404 30.3339C83.9145 30.5901 83.3615 30.7249 82.7817 30.7384C82.1343 30.7384 81.5814 30.9744 81.1229 31.4464C80.6644 31.905 80.4351 32.4646 80.4351 33.1254V33.1659C80.4351 34.2178 80.9139 34.9528 81.8714 35.3708C82.2759 35.5462 82.6198 35.6608 82.903 35.7147C85.3575 36.2137 87.5557 35.7956 89.4976 34.4605C91.2778 33.2333 92.5117 31.5004 93.1995 29.2617C93.3074 28.9246 95.4045 22.9099 99.4907 11.2176C99.8144 10.287 99.693 9.4172 99.1266 8.60804C98.5602 7.81237 97.778 7.41454 96.78 7.41454H96.7194Z" fill="white"/>
<path d="M101.271 24.0427C101.433 23.4223 101.79 22.9571 102.343 22.6469C102.896 22.3367 103.476 22.276 104.083 22.4648C105.256 22.8289 106.315 23.011 107.259 23.011C109.025 23.011 109.909 22.4648 109.909 21.3725C109.909 20.8465 109.706 20.4217 109.302 20.098C108.911 19.7879 108.142 19.4372 106.996 19.0461C103.139 17.765 101.237 15.7623 101.291 13.0382C101.291 11.1367 102.026 9.57228 103.496 8.34507C105.006 7.10436 106.975 6.48401 109.403 6.48401C110.63 6.48401 111.817 6.63235 112.963 6.92904C113.543 7.07739 113.988 7.40105 114.298 7.90003C114.608 8.41249 114.689 8.95867 114.541 9.53857L114.521 9.57903C114.386 10.1589 114.055 10.604 113.53 10.9141C113.004 11.2243 112.451 11.2985 111.871 11.1367C111.062 10.9074 110.313 10.7928 109.625 10.7928C108.048 10.7928 107.259 11.3255 107.259 12.3908C107.259 12.8763 107.488 13.2809 107.946 13.6046C108.378 13.9147 109.221 14.2856 110.475 14.7172C114.022 15.9444 115.815 18.001 115.856 20.887C115.856 22.8289 115.134 24.3798 113.691 25.5396C112.167 26.7668 110.023 27.3804 107.259 27.3804C105.681 27.3804 104.191 27.1714 102.788 26.7533C102.222 26.578 101.79 26.2341 101.493 25.7217C101.197 25.2092 101.123 24.663 101.271 24.0831V24.0427Z" fill="white"/>
</g>
<g id="Vector">
<path d="M122.032 28.3486C122.032 29.7777 122.468 31.1729 123.28 32.3486C124.093 33.5244 125.243 34.4251 126.58 34.9311C127.917 35.4371 129.375 35.5244 130.763 35.1814C132.15 34.8385 133.4 34.0815 134.347 33.011L141.728 24.6513C142.39 23.904 143.203 23.3057 144.114 22.8959C145.024 22.4862 146.011 22.2743 147.009 22.2743C148.007 22.2743 148.994 22.4862 149.905 22.8959C150.815 23.3057 151.628 23.904 152.29 24.6513L159.685 33.011C160.631 34.0815 161.882 34.8385 163.269 35.1814C164.656 35.5244 166.115 35.4371 167.452 34.9311C168.788 34.4251 169.939 33.5244 170.752 32.3486C171.564 31.1729 171.999 29.7777 172 28.3486C172.001 26.6372 171.378 24.9842 170.246 23.6998L152.317 3.31016C151.656 2.56093 150.844 1.9609 149.933 1.54988C149.023 1.13886 148.035 0.926269 147.036 0.92627C146.037 0.92627 145.05 1.13886 144.139 1.54988C143.229 1.9609 142.416 2.56093 141.755 3.31016L123.813 23.6998C122.672 24.9802 122.038 26.6336 122.032 28.3486Z" fill="white"/>
<path d="M151.515 34.4519C151.515 31.8994 149.446 29.8302 146.893 29.8302C144.341 29.8302 142.272 31.8994 142.272 34.4519C142.272 37.0043 144.341 39.0735 146.893 39.0735C149.446 39.0735 151.515 37.0043 151.515 34.4519Z" fill="white"/>
</g>
</g>
</svg>
