<svg width="25" height="25" viewBox="0 0 25 25" fill="none" xmlns="http://www.w3.org/2000/svg">
<g id="UserCircle">
<path id="Vector" d="M12.5 21.875C17.6777 21.875 21.875 17.6777 21.875 12.5C21.875 7.32233 17.6777 3.125 12.5 3.125C7.32233 3.125 3.125 7.32233 3.125 12.5C3.125 17.6777 7.32233 21.875 12.5 21.875Z" stroke="white" stroke-width="1.5" stroke-miterlimit="10"/>
<path id="Vector_2" d="M12.5 15.625C14.6574 15.625 16.4062 13.8761 16.4062 11.7188C16.4062 9.56139 14.6574 7.8125 12.5 7.8125C10.3426 7.8125 8.59375 9.56139 8.59375 11.7188C8.59375 13.8761 10.3426 15.625 12.5 15.625Z" stroke="white" stroke-width="1.5" stroke-miterlimit="10"/>
<path id="Vector_3" d="M6.23047 19.4701C6.81896 18.3131 7.71613 17.3415 8.82268 16.6628C9.92924 15.9842 11.202 15.625 12.5001 15.625C13.7982 15.625 15.0709 15.9842 16.1775 16.6628C17.284 17.3415 18.1812 18.3131 18.7697 19.4701" stroke="white" stroke-width="1.5" stroke-linecap="round" stroke-linejoin="round"/>
</g>
</svg>
