<svg width="144" height="144" viewBox="0 0 144 144" fill="none" xmlns="http://www.w3.org/2000/svg">
<path id="Vector" d="M71.5433 143.087C111.06 143.087 143.087 111.06 143.087 71.5433C143.087 32.0268 111.06 0 71.5433 0C32.0268 0 0 32.0268 0 71.5433C0 111.06 32.0268 143.087 71.5433 143.087ZM103.123 58.4084L67.3513 94.1801C64.7244 96.8071 60.4765 96.8071 57.8774 94.1801L39.9916 76.2943C37.3646 73.6673 37.3646 69.4194 39.9916 66.8204C42.6186 64.2213 46.8665 64.1934 49.4655 66.8204L62.6004 79.9553L93.6212 48.9066C96.2482 46.2796 100.496 46.2796 103.095 48.9066C105.694 51.5336 105.722 55.7814 103.095 58.3805L103.123 58.4084Z" fill="#28C76F"/>
</svg>
