<svg width="60" height="60" viewBox="0 0 60 60" fill="none" xmlns="http://www.w3.org/2000/svg">
<g id="Whatsapp widget" clip-path="url(#clip0_1_9955)">
<path id="Vector" d="M30.2926 53.7879C25.3111 53.7879 20.662 52.2863 16.7783 49.7309L7.33514 52.748L10.3962 43.6231C7.45087 39.58 5.71864 34.5989 5.71864 29.2278C5.71864 15.6845 16.7351 4.66811 30.2783 4.66811C43.8216 4.66811 54.838 15.6845 54.838 29.2278C54.838 42.7706 43.8216 53.7875 30.2783 53.7875H30.2926V53.7879ZM30.2926 0.0186768C14.1642 0.0186768 1.08347 13.1007 1.08347 29.2282C1.08347 34.7435 2.61399 39.9125 5.2704 44.3162L0.000366211 59.9821L16.1719 54.7989C20.4943 57.189 25.3534 58.441 30.2926 58.4373C46.4205 58.4373 59.5017 45.3562 59.5017 29.2282C59.5013 13.1007 46.4205 0.0186768 30.2926 0.0186768Z" fill="#FEFEFE"/>
<path id="Vector_2" d="M30.2926 4.66815C16.7493 4.66815 5.73291 15.6846 5.73291 29.2278C5.73291 34.5989 7.46555 39.5801 10.4109 43.6232L7.34982 52.748L16.7925 49.731C20.6763 52.301 25.3111 53.7879 30.3069 53.7879C43.8501 53.7879 54.8665 42.7711 54.8665 29.2282C54.8665 15.685 43.8501 4.66856 30.3069 4.66856H30.2926V4.66815Z" fill="url(#paint0_linear_1_9955)"/>
<path id="Vector_3" d="M23.4342 17.1433C22.9579 16.0028 22.5969 15.9596 21.8752 15.9303C21.6012 15.9126 21.3267 15.9031 21.0521 15.9017C20.1132 15.9017 19.1316 16.176 18.5395 16.7823C17.8178 17.5186 16.0273 19.2366 16.0273 22.7597C16.0273 26.2829 18.5974 29.6903 18.9437 30.1671C19.3048 30.643 23.9542 37.9778 31.1733 40.9671C36.8186 43.3061 38.4938 43.0893 39.7786 42.8151C41.6555 42.4108 44.0091 41.0242 44.6012 39.3498C45.1933 37.6746 45.1933 36.2451 45.0197 35.942C44.8465 35.6388 44.3697 35.466 43.6481 35.1046C42.9264 34.7436 39.4175 33.0109 38.7533 32.7799C38.1034 32.5346 37.4828 32.6214 36.9922 33.3145C36.299 34.2819 35.6206 35.2639 35.0717 35.8556C34.6385 36.3177 33.9307 36.3755 33.339 36.1298C32.5449 35.7981 30.3216 35.0178 27.578 32.5778C25.4554 30.6866 24.0117 28.3334 23.5932 27.626C23.1743 26.9043 23.55 26.485 23.8817 26.0954C24.2427 25.6476 24.5891 25.3302 24.9501 24.9113C25.3111 24.4928 25.5132 24.276 25.7443 23.785C25.99 23.3086 25.8164 22.8176 25.6432 22.4566C25.4701 22.0955 24.0263 18.5724 23.4342 17.1433Z" fill="#FEFEFE"/>
</g>
<defs>
<linearGradient id="paint0_linear_1_9955" x1="-178.877" y1="-77.6167" x2="-178.877" y2="-75.8146" gradientUnits="userSpaceOnUse">
<stop stop-color="#6EBF61"/>
<stop offset="0.231" stop-color="#50A557"/>
<stop offset="0.522" stop-color="#2A904F"/>
<stop offset="0.812" stop-color="#50A557"/>
<stop offset="1" stop-color="#6EBF63"/>
</linearGradient>
<clipPath id="clip0_1_9955">
<rect width="59.5135" height="60" fill="white"/>
</clipPath>
</defs>
</svg>
