<svg width="112" height="25" viewBox="0 0 112 25" fill="none" xmlns="http://www.w3.org/2000/svg">
<g id="Logo">
<g id="mpays">
<path d="M21.1718 10.4576C21.163 8.39867 20.6461 6.72963 19.621 5.45048C18.447 3.96981 16.8568 3.43975 14.8505 3.86029C14.1496 4.00924 13.1201 4.74519 11.7621 6.06815H11.6701C10.4961 4.12313 8.76572 3.38718 6.47901 3.86029C5.97086 3.96543 5.49774 4.21075 5.05968 4.59625C4.9633 4.6751 4.79684 4.8328 4.56028 5.06936C4.38505 5.24459 4.24487 5.36725 4.13973 5.43734V5.42419C4.13973 5.06498 4.0127 4.75833 3.75862 4.50425C3.50454 4.24141 3.19789 4.10999 2.83868 4.10999H1.3142C0.946225 4.10999 0.635197 4.24141 0.381118 4.50425C0.127039 4.75833 0 5.06498 0 5.42419V15.2544C0 15.7713 0.183988 16.2182 0.551965 16.5949C0.928702 16.9629 1.37553 17.1469 1.89245 17.1469H2.18157C2.70726 17.1469 3.15408 16.9629 3.52206 16.5949C3.8988 16.2182 4.08717 15.7713 4.08717 15.2544V9.48508C4.08717 8.86302 4.29744 8.31982 4.71798 7.85547C5.14729 7.38235 5.66859 7.13704 6.28188 7.11951C6.92146 7.10199 7.47343 7.31664 7.93778 7.76347C8.39337 8.2103 8.62116 8.7535 8.62116 9.39308V15.2544C8.62116 15.7713 8.80953 16.2182 9.18627 16.5949C9.55424 16.9629 10.0011 17.1469 10.5268 17.1469H10.9079C11.4248 17.1469 11.8716 16.9629 12.2484 16.5949C12.6163 16.2182 12.8003 15.7713 12.8003 15.2544V9.48508C12.8003 8.86302 13.0106 8.31982 13.4311 7.85547C13.8604 7.38235 14.3817 7.13704 14.995 7.11951C15.6434 7.10199 16.1953 7.31664 16.6509 7.76347C17.1153 8.2103 17.3475 8.7535 17.3475 9.39308V15.2544C17.3475 15.7713 17.5314 16.2182 17.8994 16.5949C18.2674 16.9629 18.7142 17.1469 19.2399 17.1469H19.2793C19.805 17.1469 20.2518 16.9629 20.6198 16.5949C20.9878 16.2182 21.1718 15.7713 21.1718 15.2544V10.4576Z" fill="url(#paint0_linear_1_9949)"/>
<path d="M32.3819 10.7073C32.3819 11.3556 32.2636 11.9426 32.0271 12.4683C31.773 13.0203 31.4357 13.397 31.0152 13.5985C30.139 14.0278 29.2629 14.0716 28.3868 13.7299C27.6245 13.4321 27.1426 13.0115 26.9411 12.4683V9.18281C26.9674 8.08764 27.4274 7.39112 28.321 7.09323C28.7679 6.94429 29.2147 6.90486 29.6615 6.97495C30.415 6.97495 31.059 7.32102 31.5934 8.01317C32.1191 8.71408 32.3819 9.55955 32.3819 10.5496V10.7073ZM30.0032 17.0943C31.7467 17.0943 33.2362 16.446 34.4715 15.1493C35.7069 13.8526 36.3245 12.2843 36.3245 10.4444C36.3245 8.61332 35.7069 7.04942 34.4715 5.75274C33.2362 4.45607 31.7467 3.80773 30.0032 3.80773C28.9168 3.80773 27.8961 4.08809 26.9411 4.64881V4.63567C26.9411 4.40788 26.8579 4.21075 26.6914 4.04428C26.5337 3.88658 26.3366 3.80773 26.1 3.80773H23.6293C23.4015 3.80773 23.2044 3.88658 23.038 4.04428C22.8715 4.21075 22.7883 4.41226 22.7883 4.64881V20.5901C22.7883 21.1508 22.9898 21.6327 23.3928 22.0357C23.7958 22.4387 24.2777 22.6402 24.8384 22.6402H24.891C25.4517 22.6402 25.9336 22.4387 26.3366 22.0357C26.7396 21.6327 26.9411 21.1508 26.9411 20.5901V16.2532C27.8961 16.8139 28.9168 17.0943 30.0032 17.0943Z" fill="url(#paint1_linear_1_9949)"/>
<path d="M41.4762 10.2473C41.4762 9.59897 41.5945 9.01196 41.831 8.48628C42.0851 7.93432 42.4224 7.55758 42.843 7.35607C43.7191 6.92676 44.5952 6.88296 45.4714 7.22465C46.2336 7.52254 46.7155 7.94308 46.917 8.48628V11.7718C46.8907 12.8582 46.4307 13.5547 45.5371 13.8614C45.0903 14.0103 44.6434 14.0497 44.1966 13.9796C43.4431 13.9796 42.7992 13.6336 42.2647 12.9414C41.739 12.2405 41.4762 11.395 41.4762 10.405V10.2473ZM37.5336 10.5102C37.5336 12.3413 38.1513 13.9052 39.3866 15.2019C40.622 16.4985 42.1114 17.1469 43.8549 17.1469C44.3543 17.1469 45.0684 16.8446 45.9971 16.2401C46.2248 16.0911 46.4745 16.0342 46.7461 16.0692C47.009 16.1043 47.2368 16.2225 47.4295 16.4241C47.8764 16.9059 48.2312 17.1469 48.494 17.1469H50.2288C50.4566 17.1469 50.6537 17.0636 50.8202 16.8972C50.9866 16.7395 51.0699 16.5423 51.0699 16.3058V5.80531C51.0699 5.38477 50.9165 5.02117 50.6099 4.71452C50.312 4.41664 49.9484 4.2677 49.5191 4.2677H48.4415C48.0209 4.2677 47.6617 4.41664 47.3638 4.71452C47.0659 5.01241 46.917 5.37163 46.917 5.79217V5.80531C46.3475 4.50863 45.3268 3.86029 43.8549 3.86029C42.1114 3.86029 40.622 4.50863 39.3866 5.80531C38.1513 7.10199 37.5336 8.67027 37.5336 10.5102Z" fill="url(#paint2_linear_1_9949)"/>
<path d="M62.5429 4.21513C62.1398 4.21513 61.7719 4.33779 61.4389 4.5831C61.1147 4.81966 60.8913 5.13507 60.7687 5.52933C59.5596 9.49822 58.8237 12.0741 58.5608 13.2568L55.9981 5.4899C55.8755 5.1044 55.6521 4.79776 55.3279 4.56996C55.0037 4.33341 54.6401 4.21513 54.2371 4.21513H53.9085C53.2339 4.21513 52.7126 4.49549 52.3446 5.05622C51.9767 5.6257 51.9329 6.2171 52.2132 6.83039C54.2984 11.4739 55.4987 14.6017 55.8141 16.2138V16.2795C55.8141 17.7602 55.398 18.702 54.5656 19.105C54.224 19.2715 53.8647 19.3591 53.488 19.3679C53.0675 19.3679 52.7082 19.5212 52.4104 19.8278C52.1125 20.1257 51.9635 20.4893 51.9635 20.9186V20.9449C51.9635 21.6283 52.2746 22.1058 52.8966 22.3774C53.1595 22.4913 53.3829 22.5658 53.5669 22.6008C55.1614 22.925 56.5895 22.6534 57.8512 21.786C59.0076 20.9887 59.8093 19.8629 60.2561 18.4085C60.3262 18.1895 61.6886 14.2819 64.3433 6.68583C64.5536 6.08129 64.4747 5.51619 64.1068 4.99051C63.7388 4.47359 63.2306 4.21513 62.5823 4.21513H62.5429Z" fill="url(#paint3_linear_1_9949)"/>
<path d="M65.4998 15.0179C65.6049 14.6148 65.8371 14.3126 66.1963 14.1111C66.5555 13.9096 66.9323 13.8701 67.3265 13.9928C68.0888 14.2293 68.7765 14.3476 69.3898 14.3476C70.5376 14.3476 71.1114 13.9928 71.1114 13.2831C71.1114 12.9414 70.98 12.6654 70.7172 12.4552C70.4631 12.2537 69.9637 12.0259 69.219 11.7718C66.7132 10.9395 65.4779 9.6384 65.5129 7.86861C65.5129 6.63326 65.9904 5.61694 66.9454 4.81966C67.9267 4.01362 69.2058 3.6106 70.7829 3.6106C71.5802 3.6106 72.3512 3.70697 73.0959 3.89972C73.4726 3.99609 73.7617 4.20637 73.9633 4.53054C74.1648 4.86347 74.2173 5.2183 74.121 5.59504L74.1078 5.62132C74.0202 5.99806 73.8056 6.28719 73.4639 6.4887C73.1222 6.69021 72.763 6.7384 72.3862 6.63326C71.8605 6.48432 71.3743 6.40984 70.9275 6.40984C69.9024 6.40984 69.3898 6.75592 69.3898 7.44806C69.3898 7.76347 69.5388 8.02631 69.8367 8.23659C70.117 8.4381 70.6646 8.67903 71.4794 8.9594C73.7837 9.75668 74.9489 11.0928 74.9752 12.9677C74.9752 14.2293 74.5065 15.2369 73.569 15.9904C72.579 16.7877 71.1859 17.1863 69.3898 17.1863C68.3648 17.1863 67.3966 17.0505 66.4855 16.7789C66.1175 16.665 65.8371 16.4416 65.6444 16.1087C65.4516 15.7757 65.4034 15.4209 65.4998 15.0441V15.0179Z" fill="url(#paint4_linear_1_9949)"/>
</g>
<g id="Vector">
<path d="M78.9875 17.8154C78.9879 18.7438 79.2707 19.6502 79.7985 20.414C80.3263 21.1779 81.074 21.763 81.9423 22.0918C82.8106 22.4205 83.7584 22.4772 84.6598 22.2544C85.5611 22.0316 86.3733 21.5398 86.9884 20.8444L91.7836 15.4133C92.2136 14.9279 92.7418 14.5392 93.3333 14.273C93.9247 14.0068 94.5659 13.8691 95.2144 13.8691C95.863 13.8691 96.5042 14.0068 97.0956 14.273C97.687 14.5392 98.2152 14.9279 98.6453 15.4133L103.449 20.8444C104.064 21.5398 104.877 22.0316 105.778 22.2544C106.679 22.4772 107.627 22.4205 108.495 22.0918C109.364 21.763 110.111 21.1779 110.639 20.414C111.167 19.6502 111.45 18.7438 111.45 17.8154C111.451 16.7035 111.046 15.6296 110.311 14.7952L98.6629 1.54873C98.2336 1.06198 97.7057 0.672162 97.1142 0.405138C96.5227 0.138115 95.8811 -2.83687e-08 95.2321 0C94.5831 2.83687e-08 93.9415 0.138115 93.35 0.405138C92.7585 0.672162 92.2305 1.06198 91.8013 1.54873L80.1444 14.7952C79.4032 15.627 78.9917 16.7012 78.9875 17.8154Z" fill="url(#paint5_linear_1_9949)"/>
<path d="M98.1417 21.7805C98.1417 20.1222 96.7974 18.7779 95.1391 18.7779C93.4809 18.7779 92.1366 20.1222 92.1366 21.7805C92.1366 23.4387 93.4809 24.783 95.1391 24.783C96.7974 24.783 98.1417 23.4387 98.1417 21.7805Z" fill="url(#paint6_linear_1_9949)"/>
</g>
</g>
<defs>
<linearGradient id="paint0_linear_1_9949" x1="0" y1="3.6106" x2="13.7225" y2="50.9618" gradientUnits="userSpaceOnUse">
<stop stop-color="#43CBFF"/>
<stop offset="1" stop-color="#9708CC"/>
</linearGradient>
<linearGradient id="paint1_linear_1_9949" x1="0" y1="3.6106" x2="13.7225" y2="50.9618" gradientUnits="userSpaceOnUse">
<stop stop-color="#43CBFF"/>
<stop offset="1" stop-color="#9708CC"/>
</linearGradient>
<linearGradient id="paint2_linear_1_9949" x1="0" y1="3.6106" x2="13.7225" y2="50.9618" gradientUnits="userSpaceOnUse">
<stop stop-color="#43CBFF"/>
<stop offset="1" stop-color="#9708CC"/>
</linearGradient>
<linearGradient id="paint3_linear_1_9949" x1="0" y1="3.6106" x2="13.7225" y2="50.9618" gradientUnits="userSpaceOnUse">
<stop stop-color="#43CBFF"/>
<stop offset="1" stop-color="#9708CC"/>
</linearGradient>
<linearGradient id="paint4_linear_1_9949" x1="0" y1="3.6106" x2="13.7225" y2="50.9618" gradientUnits="userSpaceOnUse">
<stop stop-color="#43CBFF"/>
<stop offset="1" stop-color="#9708CC"/>
</linearGradient>
<linearGradient id="paint5_linear_1_9949" x1="133.574" y1="7.81542" x2="82.7794" y2="-6.06279" gradientUnits="userSpaceOnUse">
<stop stop-color="#43CBFF"/>
<stop offset="1" stop-color="#9708CC"/>
</linearGradient>
<linearGradient id="paint6_linear_1_9949" x1="133.574" y1="7.81542" x2="82.7794" y2="-6.06279" gradientUnits="userSpaceOnUse">
<stop stop-color="#43CBFF"/>
<stop offset="1" stop-color="#9708CC"/>
</linearGradient>
</defs>
</svg>
